<?xml version="1.0" standalone="no"?>
<!DOCTYPE svg PUBLIC "-//W3C//DTD SVG 20010904//EN"
 "http://www.w3.org/TR/2001/REC-SVG-20010904/DTD/svg10.dtd">
<svg version="1.0" xmlns="http://www.w3.org/2000/svg"
 width="500.000000pt" height="500.000000pt" viewBox="0 0 500.000000 500.000000"
 preserveAspectRatio="xMidYMid meet">

<g transform="translate(0.000000,500.000000) scale(0.100000,-0.100000)"
fill="#000000" stroke="none">
<path d="M1705 2971 c-99 -60 -122 -184 -50 -269 14 -17 25 -34 25 -39 0 -5
-13 -34 -29 -64 -60 -109 -64 -223 -11 -283 25 -27 34 -31 75 -29 116 4 203
122 242 328 29 154 -6 300 -86 353 -43 28 -123 30 -166 3z m165 -27 c50 -45
70 -108 70 -218 -1 -195 -77 -369 -183 -416 -46 -21 -67 -17 -99 17 -20 22
-23 34 -23 111 1 69 5 98 24 139 31 71 40 77 85 58 44 -19 48 -12 5 10 -20 11
-29 21 -25 31 4 11 1 14 -13 9 -15 -5 -25 4 -45 38 -68 116 -2 257 121 257 35
0 50 -7 83 -36z"/>
<path d="M2873 2886 c-6 -12 -37 -21 -102 -30 -51 -8 -95 -17 -98 -20 -10 -10
27 -7 116 9 47 8 87 13 89 10 2 -2 5 -140 6 -307 1 -230 4 -309 14 -326 55
-97 66 223 18 544 -7 49 -12 91 -10 93 2 2 45 9 96 16 l93 13 -99 -5 c-73 -4
-100 -3 -106 7 -6 9 -10 9 -17 -4z m53 -437 c7 -119 -1 -180 -16 -129 -5 14
-8 88 -8 165 0 167 14 145 24 -36z"/>
<path d="M3143 2893 c15 -2 39 -2 55 0 15 2 2 4 -28 4 -30 0 -43 -2 -27 -4z"/>
<path d="M2557 2602 c-10 -10 -17 -24 -17 -30 0 -44 -87 -58 -114 -17 -19 29
-51 32 -78 8 -11 -9 -18 -11 -18 -5 0 7 -4 12 -10 12 -5 0 -10 -6 -10 -14 0
-21 -39 -30 -66 -15 -21 11 -27 10 -49 -11 -14 -13 -27 -21 -29 -19 -10 9 20
54 44 66 l25 13 -23 0 c-23 0 -40 -15 -95 -85 -45 -56 -72 -46 -57 20 10 46 6
54 -20 37 -18 -11 -20 -9 -20 13 0 33 -16 32 -24 0 -8 -30 -1 -45 20 -45 9 0
14 -11 14 -34 0 -21 6 -36 15 -40 18 -6 60 8 70 24 4 6 14 9 22 6 8 -4 32 4
51 16 37 23 106 31 129 15 7 -5 22 4 41 24 l30 32 17 -27 c18 -27 19 -27 112
-23 70 4 93 2 93 -7 0 -30 -29 -107 -53 -137 -56 -75 -75 -169 -37 -189 39
-21 82 62 97 189 5 43 14 63 42 95 62 72 67 81 26 48 l-40 -33 -3 33 c-5 58
-10 63 -35 39 -45 -41 -65 -16 -26 33 15 19 17 26 6 26 -8 0 -21 -8 -30 -18z
m11 -327 c-25 -73 -48 -97 -48 -48 0 39 62 166 67 137 2 -12 -6 -52 -19 -89z"/>
<path d="M3246 2571 c-10 -11 -31 -25 -48 -32 -29 -12 -32 -11 -55 17 l-24 29
-30 -37 c-17 -21 -35 -38 -40 -38 -5 0 -9 16 -9 36 0 21 -4 33 -10 29 -15 -9
-12 -61 4 -74 17 -14 43 -5 57 20 12 23 25 24 46 3 10 -10 25 -13 43 -9 22 5
28 2 33 -14 6 -23 37 -19 62 9 12 13 26 17 54 13 25 -3 41 -1 46 7 5 9 2 10
-13 6 -11 -4 -30 -1 -41 6 -17 10 -25 9 -50 -10 -17 -12 -33 -22 -36 -22 -13
0 31 63 50 70 20 9 20 9 -1 9 -11 1 -29 -8 -38 -18z"/>
<path d="M1783 1890 c0 -30 2 -43 4 -27 2 15 2 39 0 55 -2 15 -4 2 -4 -28z"/>
<path d="M2071 1888 c1 -29 4 -41 6 -26 3 18 12 28 26 31 l22 4 -22 2 c-33 2
-29 29 5 34 25 4 25 4 -5 6 l-33 1 1 -52z"/>
<path d="M2423 1890 c0 -30 2 -43 4 -27 2 15 2 39 0 55 -2 15 -4 2 -4 -28z"/>
<path d="M2912 1890 c0 -14 2 -19 5 -12 2 6 2 18 0 25 -3 6 -5 1 -5 -13z"/>
<path d="M3132 1890 c0 -14 2 -19 5 -12 2 6 2 18 0 25 -3 6 -5 1 -5 -13z"/>
<path d="M2203 1873 c9 -2 25 -2 35 0 9 3 1 5 -18 5 -19 0 -27 -2 -17 -5z"/>
<path d="M2603 1843 c9 -2 23 -2 30 0 6 3 -1 5 -18 5 -16 0 -22 -2 -12 -5z"/>
</g>
</svg>
