<?xml version="1.0" standalone="no"?>
<!DOCTYPE svg PUBLIC "-//W3C//DTD SVG 20010904//EN"
 "http://www.w3.org/TR/2001/REC-SVG-20010904/DTD/svg10.dtd">
<svg version="1.0" xmlns="http://www.w3.org/2000/svg"
 width="500.000000pt" height="500.000000pt" viewBox="0 0 500.000000 500.000000"
 preserveAspectRatio="xMidYMid meet">

<g transform="translate(0.000000,500.000000) scale(0.100000,-0.100000)"
fill="#000000" stroke="none">
<path d="M3461 2937 c-12 -15 -31 -204 -31 -315 0 -65 -3 -76 -25 -98 -31 -31
-59 -28 -63 6 -6 47 -13 57 -23 32 -11 -30 -35 -38 -65 -22 -21 12 -27 11 -49
-10 -14 -13 -28 -21 -31 -17 -10 10 25 57 49 67 l22 9 -22 0 c-12 1 -34 -10
-50 -23 -35 -29 -87 -56 -108 -56 -10 0 -15 9 -15 29 0 33 -19 44 -57 34 -23
-5 -25 -4 -18 13 78 177 94 362 29 337 -28 -11 -53 -153 -54 -304 0 -87 0 -87
-35 -118 -54 -47 -68 -42 -60 19 4 32 3 50 -3 50 -6 0 -14 -5 -17 -10 -10 -17
-24 -2 -18 20 9 33 -12 23 -28 -14 -9 -20 -11 -33 -5 -33 41 1 46 -4 46 -37 0
-21 6 -36 16 -40 17 -7 64 15 84 38 9 11 16 13 25 6 8 -7 16 0 28 25 17 35 47
48 47 21 0 -25 -20 -69 -38 -82 -31 -24 -2 -14 77 26 65 32 78 36 74 21 -7
-28 20 -32 57 -8 43 27 110 29 128 5 16 -22 45 -23 77 -2 l25 16 0 -41 c0 -50
14 -52 41 -6 24 40 26 41 49 20 21 -19 78 -4 110 30 30 32 21 32 -26 0 -55
-37 -88 -29 -64 16 20 36 1 34 -38 -4 -21 -20 -41 -37 -45 -37 -13 0 -7 36 24
154 40 154 42 296 5 296 -8 0 -19 -6 -25 -13z m29 -71 c0 -66 -20 -200 -32
-211 -6 -7 -8 8 -4 45 3 30 8 90 12 133 6 82 24 107 24 33z m-485 -134 c-20
-97 -38 -120 -30 -37 9 88 25 187 33 199 14 22 13 -89 -3 -162z"/>
<path d="M1383 2886 c-6 -12 -37 -21 -102 -30 -51 -8 -95 -17 -98 -20 -10 -10
27 -7 116 9 47 8 87 13 89 11 2 -3 5 -141 6 -308 1 -229 4 -309 14 -326 55
-97 65 225 18 544 -7 49 -12 91 -10 93 2 2 45 9 96 16 l93 13 -99 -5 c-73 -4
-100 -3 -106 7 -6 9 -10 9 -17 -4z m54 -437 c6 -119 -2 -180 -17 -129 -5 14
-8 88 -8 165 0 168 15 146 25 -36z"/>
<path d="M1653 2893 c15 -2 39 -2 55 0 15 2 2 4 -28 4 -30 0 -43 -2 -27 -4z"/>
<path d="M2480 2886 c0 -15 -19 -20 -110 -32 -30 -3 -64 -10 -75 -15 -18 -7
-18 -8 5 -8 14 0 59 6 100 14 41 7 79 10 83 5 5 -4 9 -145 10 -313 2 -274 4
-308 19 -323 16 -16 18 -16 28 12 23 58 5 459 -26 606 -6 29 0 32 71 41 17 2
4 5 -27 6 -32 0 -58 6 -58 11 0 6 -4 10 -10 10 -5 0 -10 -6 -10 -14z m55 -432
c8 -97 0 -167 -16 -143 -5 8 -8 82 -8 164 1 159 11 151 24 -21z"/>
<path d="M2753 2893 c15 -2 39 -2 55 0 15 2 2 4 -28 4 -30 0 -43 -2 -27 -4z"/>
<path d="M2638 2883 c12 -2 32 -2 45 0 12 2 2 4 -23 4 -25 0 -35 -2 -22 -4z"/>
<path d="M3327 2644 c-4 -4 -7 -14 -7 -23 0 -11 3 -12 11 -4 6 6 10 16 7 23
-2 6 -7 8 -11 4z"/>
<path d="M1690 2567 c0 -19 -9 -28 -43 -41 -54 -20 -97 -21 -97 -1 0 9 10 15
26 15 36 0 29 34 -9 38 -21 3 -29 -2 -38 -22 -24 -52 39 -74 118 -41 46 20 53
19 53 -5 0 -28 25 -25 38 5 13 28 32 34 32 10 0 -21 10 -19 37 7 l23 21 23
-21 c13 -12 33 -22 44 -22 12 0 23 -6 26 -14 7 -18 40 -11 61 13 12 13 30 16
78 15 55 -2 65 1 86 23 l23 25 20 -26 c16 -21 29 -26 63 -26 23 0 51 7 62 16
18 15 18 15 -3 5 -37 -19 -78 -13 -103 14 -27 29 -52 32 -70 10 -9 -11 -16
-13 -24 -5 -14 14 -26 13 -26 -4 0 -20 -35 -29 -58 -15 -16 10 -25 9 -50 -9
-16 -12 -33 -22 -37 -22 -13 0 31 63 50 70 20 9 20 9 -1 9 -11 1 -35 -15 -54
-34 -19 -19 -38 -35 -42 -35 -5 0 -19 12 -32 27 -20 23 -27 26 -47 17 -17 -8
-29 -8 -41 -1 -13 9 -21 7 -37 -7 -19 -17 -20 -17 -23 5 -4 32 -28 37 -28 6z
m-110 -7 c0 -5 -7 -10 -15 -10 -8 0 -15 5 -15 10 0 6 7 10 15 10 8 0 15 -4 15
-10z"/>
<path d="M2631 2566 c-8 -9 -11 -26 -7 -41 6 -22 12 -25 49 -25 23 1 53 8 67
16 15 9 17 12 5 8 -32 -12 -98 -10 -102 3 -2 7 8 13 24 15 36 4 38 32 2 36
-14 2 -31 -4 -38 -12z m49 -6 c0 -5 -7 -10 -15 -10 -8 0 -15 5 -15 10 0 6 7
10 15 10 8 0 15 -4 15 -10z"/>
<path d="M1833 1933 c9 -2 23 -2 30 0 6 3 -1 5 -18 5 -16 0 -22 -2 -12 -5z"/>
<path d="M1948 1933 c7 -3 16 -2 19 1 4 3 -2 6 -13 5 -11 0 -14 -3 -6 -6z"/>
<path d="M2150 1890 c0 -48 1 -50 28 -49 23 2 24 2 5 6 -14 3 -23 12 -23 23 0
11 9 20 23 23 l22 4 -22 2 c-13 0 -23 7 -23 15 0 8 10 17 23 19 19 4 18 4 -5
6 -27 1 -28 -1 -28 -49z"/>
<path d="M2280 1933 c0 -6 8 -17 18 -24 16 -13 16 -13 2 6 -8 11 -16 22 -17
24 -2 2 -3 0 -3 -6z"/>
<path d="M2430 1890 c0 -46 2 -50 23 -49 16 1 18 2 5 6 -13 3 -18 15 -18 43 0
28 5 40 18 43 13 4 11 5 -5 6 -21 1 -23 -3 -23 -49z"/>
<path d="M3081 1888 c1 -55 5 -50 11 15 2 20 0 37 -4 37 -4 0 -7 -24 -7 -52z"/>
<path d="M2925 1919 c-4 -6 -5 -12 -2 -15 2 -3 7 2 10 11 7 17 1 20 -8 4z"/>
<path d="M3002 1890 c0 -14 2 -19 5 -12 2 6 2 18 0 25 -3 6 -5 1 -5 -13z"/>
<path d="M1833 1893 c9 -2 23 -2 30 0 6 3 -1 5 -18 5 -16 0 -22 -2 -12 -5z"/>
<path d="M1948 1883 c6 -2 18 -2 25 0 6 3 1 5 -13 5 -14 0 -19 -2 -12 -5z"/>
<path d="M2496 1863 c-6 -14 -5 -15 5 -6 7 7 10 15 7 18 -3 3 -9 -2 -12 -12z"/>
<path d="M2920 1871 c0 -6 4 -13 10 -16 6 -3 7 1 4 9 -7 18 -14 21 -14 7z"/>
<path d="M3126 1857 c3 -10 9 -15 12 -12 3 3 0 11 -7 18 -10 9 -11 8 -5 -6z"/>
</g>
</svg>
