<?xml version="1.0" standalone="no"?>
<!DOCTYPE svg PUBLIC "-//W3C//DTD SVG 20010904//EN"
 "http://www.w3.org/TR/2001/REC-SVG-20010904/DTD/svg10.dtd">
<svg version="1.0" xmlns="http://www.w3.org/2000/svg"
 width="500.000000pt" height="500.000000pt" viewBox="0 0 500.000000 500.000000"
 preserveAspectRatio="xMidYMid meet">

<g transform="translate(0.000000,500.000000) scale(0.100000,-0.100000)"
fill="#000000" stroke="none">
<path d="M1532 3330 c-105 -28 -203 -84 -293 -168 -114 -107 -197 -243 -238
-390 l-20 -72 133 0 133 0 12 113 c19 189 59 303 135 385 75 81 191 119 334
109 239 -16 350 -159 383 -494 l12 -113 133 0 133 0 -20 72 c-41 146 -127 287
-242 394 -170 158 -388 218 -595 164z"/>
<path d="M2520 3280 c0 -19 7 -20 100 -20 l100 0 0 -280 0 -280 105 0 105 0 0
280 0 280 148 0 c81 0 163 -4 182 -10 50 -14 104 -62 131 -117 38 -79 40 -321
3 -417 -5 -14 4 -16 78 -16 68 0 88 3 100 18 27 30 46 76 58 140 31 174 -66
334 -245 401 -93 35 -169 41 -522 41 -336 0 -343 0 -343 -20z"/>
<path d="M1550 2560 c-58 -58 20 -142 88 -94 15 10 22 25 22 49 0 58 -69 86
-110 45z m81 -31 c14 -27 -23 -64 -51 -49 -25 13 -26 55 -3 68 21 12 41 5 54
-19z"/>
<path d="M1750 2515 c0 -51 3 -65 15 -65 8 0 15 9 15 20 0 11 6 20 13 20 7 0
18 -9 25 -20 7 -11 19 -20 28 -20 14 0 14 3 4 15 -10 12 -10 21 0 45 17 42 -7
70 -62 70 l-38 0 0 -65z m69 36 c19 -12 6 -41 -19 -41 -15 0 -20 7 -20 25 0
26 14 31 39 16z"/>
<path d="M1956 2520 c-14 -34 -26 -63 -26 -66 0 -11 29 -2 34 11 8 21 56 19
72 -2 7 -10 15 -15 19 -12 10 11 -41 124 -58 127 -9 2 -23 -19 -41 -58z m54
-7 c0 -7 -7 -13 -15 -13 -16 0 -19 9 -9 35 5 13 8 14 15 3 5 -7 9 -19 9 -25z"/>
<path d="M2140 2515 c0 -51 3 -65 15 -65 11 0 15 11 15 38 l1 37 32 -38 c47
-54 57 -49 57 28 0 51 -3 65 -15 65 -11 0 -15 -11 -15 -37 l-1 -38 -32 38
c-47 54 -57 49 -57 -28z"/>
<path d="M2365 2555 c-14 -13 -25 -31 -25 -40 0 -22 45 -65 69 -65 37 0 51 12
51 41 0 16 -4 29 -10 29 -5 0 -10 -9 -10 -19 0 -32 -52 -35 -65 -4 -14 38 23
71 58 52 9 -6 18 -5 22 0 6 11 -25 31 -50 31 -9 0 -27 -11 -40 -25z"/>
<path d="M2660 2515 l0 -65 41 0 c52 0 83 16 73 38 -3 9 -6 28 -5 41 2 36 -17
51 -65 51 l-44 0 0 -65z m75 25 c0 -8 -10 -16 -22 -18 -18 -3 -23 2 -23 18 0
16 5 21 23 18 12 -2 22 -10 22 -18z m6 -55 c0 -5 -12 -11 -26 -13 -18 -2 -25
1 -25 13 0 12 7 15 25 13 14 -2 26 -7 26 -13z"/>
<path d="M2876 2520 c-14 -34 -26 -63 -26 -66 0 -11 29 -2 34 11 8 21 56 19
72 -2 7 -10 15 -15 19 -12 10 11 -41 124 -58 127 -9 2 -23 -19 -41 -58z m54
-7 c0 -7 -7 -13 -15 -13 -16 0 -19 9 -9 35 5 13 8 14 15 3 5 -7 9 -19 9 -25z"/>
<path d="M3060 2515 c0 -51 3 -65 15 -65 12 0 15 14 15 65 0 51 -3 65 -15 65
-12 0 -15 -14 -15 -65z"/>
<path d="M3180 2515 c0 -51 3 -65 15 -65 8 0 15 9 15 19 0 31 15 33 40 6 37
-39 56 -31 25 10 l-27 34 22 28 c32 42 3 43 -31 2 l-28 -34 -1 33 c0 22 -5 32
-15 32 -12 0 -15 -14 -15 -65z"/>
<path d="M1010 2293 c0 -10 15 -52 33 -93 97 -223 270 -383 482 -446 81 -25
239 -25 320 0 212 63 385 223 482 446 51 116 54 111 -89 108 l-123 -3 -7 -62
c-17 -160 -71 -288 -152 -368 -78 -76 -142 -99 -271 -99 -129 0 -193 23 -271
99 -81 80 -135 208 -152 368 l-7 62 -122 3 c-112 2 -123 1 -123 -15z"/>
<path d="M2720 2055 l0 -255 -100 0 c-93 0 -100 -1 -100 -20 0 -20 7 -20 305
-20 298 0 305 0 305 20 0 19 -7 20 -100 20 l-100 0 0 255 0 255 -105 0 -105 0
0 -255z"/>
<path d="M3374 2258 c4 -29 11 -116 16 -193 5 -77 14 -156 20 -176 14 -51 49
-100 88 -122 70 -41 218 -29 316 26 56 31 59 52 4 27 -59 -27 -110 -26 -143 3
-31 26 -44 102 -45 253 0 97 -15 201 -32 222 -7 8 -45 12 -120 12 l-110 0 6
-52z"/>
<path d="M1498 1523 c7 -3 16 -2 19 1 4 3 -2 6 -13 5 -11 0 -14 -3 -6 -6z"/>
<path d="M1650 1488 c0 -31 3 -39 10 -28 8 13 12 13 32 1 21 -13 22 -13 9 2
-7 10 -20 17 -27 17 -20 0 -17 38 4 43 13 4 11 5 -5 6 -21 1 -23 -4 -23 -41z"/>
<path d="M1836 1517 c3 -10 9 -15 12 -12 3 3 0 11 -7 18 -10 9 -11 8 -5 -6z"/>
<path d="M1971 1490 c1 -39 2 -41 8 -15 l6 29 23 -28 c12 -16 22 -25 22 -20
-1 5 -14 25 -30 44 l-30 34 1 -44z"/>
<path d="M2146 1521 c-3 -4 6 -6 19 -3 14 2 25 6 25 8 0 8 -39 4 -44 -5z"/>
<path d="M2410 1490 c0 -38 2 -40 29 -40 34 0 45 12 36 39 -4 13 -12 17 -30
13 -14 -2 -25 0 -25 6 0 6 10 13 23 15 19 4 18 4 -5 6 -26 1 -28 -2 -28 -39z
m60 -15 c0 -9 -9 -15 -25 -15 -16 0 -25 6 -25 15 0 9 9 15 25 15 16 0 25 -6
25 -15z"/>
<path d="M2853 1490 c-1 -25 1 -37 4 -27 2 9 7 17 10 17 4 0 16 -8 27 -17 21
-18 21 -18 2 5 -19 22 -19 22 0 45 18 21 18 21 -8 -1 l-26 -24 -5 24 c-2 12
-4 3 -4 -22z"/>
<path d="M3138 1523 c7 -3 16 -2 19 1 4 3 -2 6 -13 5 -11 0 -14 -3 -6 -6z"/>
<path d="M3298 1523 c7 -3 16 -2 19 1 4 3 -2 6 -13 5 -11 0 -14 -3 -6 -6z"/>
<path d="M3440 1491 c0 -23 2 -41 4 -41 8 0 12 71 4 76 -4 3 -8 -13 -8 -35z"/>
<path d="M2131 1489 c-2 -38 62 -53 65 -16 1 12 1 13 -3 2 -7 -23 -42 -18 -53
8 -6 15 -9 17 -9 6z"/>
<path d="M2576 1485 c-3 -9 -6 -18 -6 -19 0 -1 14 -1 30 2 20 3 30 0 30 -9 0
-7 2 -10 5 -7 11 11 -7 37 -22 31 -8 -3 -18 0 -23 6 -5 9 -9 8 -14 -4z"/>
<path d="M1805 1471 c-3 -8 -3 -16 0 -19 3 -3 5 0 5 7 0 9 10 12 29 9 18 -3
27 0 25 6 -6 16 -53 13 -59 -3z"/>
<path d="M1510 1460 c-23 -7 -23 -8 -3 -9 12 -1 25 4 28 9 3 6 5 10 3 9 -2 -1
-14 -5 -28 -9z"/>
<path d="M3138 1453 c7 -3 16 -2 19 1 4 3 -2 6 -13 5 -11 0 -14 -3 -6 -6z"/>
<path d="M3298 1453 c7 -3 16 -2 19 1 4 3 -2 6 -13 5 -11 0 -14 -3 -6 -6z"/>
</g>
</svg>
