<?xml version="1.0" standalone="no"?>
<!DOCTYPE svg PUBLIC "-//W3C//DTD SVG 20010904//EN"
 "http://www.w3.org/TR/2001/REC-SVG-20010904/DTD/svg10.dtd">
<svg version="1.0" xmlns="http://www.w3.org/2000/svg"
 width="850.000000pt" height="900.000000pt" viewBox="0 0 850.000000 900.000000"
 preserveAspectRatio="xMidYMid meet">

<g transform="translate(0.000000,900.000000) scale(0.100000,-0.100000)"
fill="#000000" stroke="none">
<path d="M0 4500 l0 -4500 4250 0 4250 0 0 4500 0 4500 -4250 0 -4250 0 0
-4500z m4957 2534 c20 -6 15 -13 -56 -80 -130 -123 -125 -95 -131 -629 -4
-334 -9 -458 -18 -480 -31 -72 -82 -131 -212 -249 -119 -108 -143 -126 -171
-126 l-34 0 82 83 c127 129 117 79 123 607 6 571 -9 522 232 746 79 73 148
133 153 133 6 1 20 -2 32 -5z m-717 -19 c0 -38 45 -127 95 -185 57 -67 95
-133 95 -164 0 -10 -28 -47 -62 -82 l-61 -64 -31 42 -31 43 -5 -136 c-3 -93
-9 -141 -19 -152 -11 -14 -8 -22 22 -57 44 -52 92 -150 106 -218 6 -29 11
-109 11 -178 0 -156 -5 -167 -138 -296 -77 -74 -109 -99 -142 -108 -28 -8
-134 -10 -324 -8 l-281 3 -46 27 c-61 36 -79 75 -78 165 2 90 11 134 24 112
31 -49 100 -62 163 -30 20 10 128 114 240 229 l203 211 -116 98 c-187 158
-207 168 -266 137 -51 -26 -62 -69 -62 -234 0 -80 4 -161 8 -180 7 -35 6 -34
-70 40 -91 89 -107 116 -107 184 -1 68 23 116 83 170 90 81 121 91 302 94 185
4 217 -4 332 -78 70 -46 75 -48 85 -30 5 10 10 76 10 145 0 126 0 127 -30 165
-60 76 -83 155 -59 203 13 26 130 147 141 147 4 0 8 -7 8 -15z m-1061 -956
c37 -40 45 -102 47 -347 2 -230 2 -233 29 -287 30 -62 79 -107 134 -124 27 -8
206 -11 593 -11 l556 0 11 46 c21 84 57 138 148 225 176 167 217 199 254 199
l34 0 -87 -83 c-103 -98 -118 -134 -118 -285 l0 -94 104 4 c97 3 107 5 148 33
l43 31 5 79 5 80 19 -28 c38 -56 50 -55 129 19 115 107 204 137 275 94 65 -40
79 -141 34 -242 -24 -56 -221 -240 -275 -257 -89 -30 -166 37 -185 158 l-7 50
-147 -142 -148 -142 -3 -260 c-3 -243 -4 -264 -26 -317 -26 -68 -83 -133 -235
-270 -95 -85 -114 -98 -145 -98 l-35 0 86 83 c120 115 118 104 118 524 l0 333
-503 0 c-555 0 -577 2 -670 62 -50 32 -110 104 -145 173 -49 99 -55 137 -61
415 -6 253 -7 267 -30 310 -13 25 -33 55 -44 68 l-20 22 46 0 c34 0 51 -6 66
-21z m-117 -816 c34 -40 41 -88 48 -343 6 -231 9 -260 29 -312 45 -115 145
-219 262 -272 89 -41 160 -47 479 -44 277 3 297 4 330 24 67 39 99 138 66 202
-8 15 -42 54 -75 87 l-61 59 0 155 0 156 85 -85 c114 -113 118 -124 113 -331
-4 -202 -7 -210 -157 -360 -154 -154 -152 -153 -434 -157 -189 -3 -237 -1
-285 13 -150 44 -281 154 -352 297 -62 127 -70 180 -70 503 0 260 -2 283 -21
325 -11 25 -32 57 -46 73 l-27 27 51 0 c35 0 54 -5 65 -17z m1976 -237 c117
-121 117 -119 117 -456 0 -246 -3 -294 -18 -350 -28 -97 -75 -178 -143 -245
-139 -136 -302 -194 -551 -195 l-92 0 -142 123 -142 122 274 5 c253 5 278 7
330 28 109 43 213 128 311 251 69 86 104 151 119 220 16 78 0 119 -82 205
l-69 73 0 147 c0 80 4 146 8 146 5 0 41 -33 80 -74z m-1485 -164 c123 -124
122 -158 -10 -283 l-75 -71 -22 49 c-13 26 -45 73 -72 103 -27 30 -58 65 -68
78 l-20 23 89 89 c49 50 92 90 95 90 3 0 40 -35 83 -78z m374 6 c124 -127 125
-148 11 -264 -45 -46 -84 -84 -87 -84 -3 0 -17 21 -30 46 -14 25 -53 76 -88
114 -35 37 -63 72 -63 76 0 9 171 184 180 184 3 0 38 -33 77 -72z m-128 -1044
c94 -79 33 -223 -89 -211 -34 4 -51 12 -72 36 -51 57 -49 112 7 168 44 44 107
47 154 7z m-2117 -48 c79 -17 116 -35 167 -81 37 -33 80 -109 69 -121 -4 -3
-24 4 -47 15 -82 42 -147 53 -365 58 -202 6 -209 5 -201 -13 5 -11 10 -76 13
-145 l4 -127 116 -4 c96 -3 124 -8 159 -26 55 -29 103 -72 127 -113 19 -32 19
-32 0 -24 -62 26 -129 35 -261 35 l-143 0 0 -220 c0 -225 9 -309 37 -332 22
-18 331 -24 421 -8 65 11 152 51 152 70 0 6 4 10 8 10 4 0 5 -27 2 -60 -8 -86
-55 -142 -136 -160 -21 -5 -186 -10 -365 -10 -325 0 -326 0 -347 23 -45 48
-46 57 -52 567 -5 468 -6 487 -27 544 -12 32 -34 73 -48 91 -14 19 -25 36 -25
39 0 3 152 6 338 6 252 0 354 -4 404 -14z m4158 -136 l0 -110 110 0 110 0 0
-76 c0 -69 -2 -75 -17 -69 -39 16 -75 24 -137 30 l-66 7 0 -378 c0 -347 2
-382 19 -419 10 -22 30 -51 45 -64 14 -14 26 -28 26 -33 0 -4 -57 -8 -128 -8
-141 0 -158 6 -190 63 -15 29 -17 74 -20 435 l-3 402 -82 0 -82 0 78 43 c113
62 201 130 263 205 30 36 54 70 54 74 0 4 5 8 10 8 6 0 10 -43 10 -110z
m-3174 -121 c61 -19 122 -67 152 -119 l29 -50 18 40 c23 51 78 108 124 128 42
18 147 20 206 4 70 -20 127 -64 160 -123 l30 -54 5 -345 c5 -376 5 -375 68
-442 l26 -28 -141 0 c-203 0 -195 -16 -201 420 -3 290 -5 318 -23 346 -27 45
-80 67 -142 61 -42 -4 -56 -10 -84 -41 l-33 -36 0 -307 c0 -337 3 -351 64
-416 14 -15 26 -30 26 -33 0 -2 -61 -4 -135 -4 -132 0 -137 1 -159 25 -40 43
-46 95 -46 405 0 320 -2 335 -59 383 -60 50 -172 31 -216 -37 -14 -21 -16 -63
-13 -333 3 -293 4 -310 24 -348 12 -22 31 -49 43 -59 12 -11 21 -23 21 -28 0
-4 -57 -8 -128 -8 -214 0 -205 -21 -212 505 -5 427 -4 420 -58 478 l-26 27 94
0 c124 0 168 -20 204 -93 14 -28 26 -58 26 -66 1 -9 8 -2 17 14 21 40 81 103
116 121 59 32 145 36 223 13z m4604 11 c36 -6 93 -24 128 -41 l62 -30 -1 -87
c0 -71 -2 -84 -12 -68 -27 43 -69 85 -101 100 -71 34 -194 12 -217 -38 -27
-58 14 -111 149 -194 169 -105 235 -195 236 -322 0 -87 -30 -154 -100 -220
-120 -113 -291 -137 -456 -63 l-58 26 0 90 0 90 29 -40 c47 -65 86 -87 161
-91 111 -6 187 49 197 142 8 63 -26 113 -109 161 -182 106 -251 182 -271 298
-8 50 -8 75 2 107 24 80 123 159 225 180 58 11 63 11 136 0z m-3499 -23 c19
-12 43 -40 54 -62 19 -37 20 -66 25 -410 5 -406 5 -405 70 -478 l32 -37 -137
0 c-136 0 -137 0 -165 28 -45 45 -50 97 -50 486 0 385 -3 412 -57 468 l-27 28
111 0 c98 0 114 -3 144 -23z m464 9 c43 -18 73 -66 81 -130 l7 -50 22 50 c42
92 105 138 192 137 52 0 94 -19 120 -52 7 -10 12 -49 13 -99 l0 -82 -37 24
c-74 49 -164 52 -236 7 -66 -40 -69 -56 -65 -379 3 -315 3 -311 69 -387 l31
-35 -137 0 c-136 0 -137 0 -164 28 -44 43 -51 113 -51 506 0 377 -2 390 -57
449 l-27 27 102 0 c67 0 115 -5 137 -14z m945 -17 c73 -34 114 -70 139 -122
20 -41 21 -60 21 -358 0 -355 4 -386 66 -457 l36 -42 -132 0 c-75 0 -140 5
-152 11 -11 6 -28 30 -39 53 l-19 43 -40 -38 c-84 -80 -240 -91 -343 -23 -48
31 -84 107 -93 190 -16 156 70 259 298 360 57 25 118 55 137 66 72 45 84 177
20 217 -30 18 -108 25 -154 12 -42 -11 -84 -45 -122 -96 l-22 -30 -1 87 0 88
50 25 c71 36 114 44 210 42 66 -2 97 -9 140 -28z m1456 10 c73 -28 138 -91
154 -150 36 -133 -64 -271 -278 -382 -139 -72 -166 -96 -157 -140 12 -54 53
-124 87 -150 100 -74 231 -60 311 33 l37 44 0 -81 c0 -94 -6 -102 -96 -135
-86 -31 -255 -31 -338 -1 -118 44 -212 142 -258 268 -29 82 -36 252 -14 349
42 180 146 307 289 351 68 22 197 19 263 -6z"/>
<path d="M3815 5905 l-210 -216 303 1 c240 0 310 3 337 14 40 17 52 49 36 98
-15 43 -96 150 -185 244 l-71 75 -210 -216z"/>
<path d="M5223 5418 c-13 -6 -23 -14 -23 -17 0 -14 94 -113 121 -126 70 -37
113 -2 91 73 -19 64 -44 82 -110 81 -31 0 -67 -5 -79 -11z"/>
<path d="M5012 3035 c-92 -62 -135 -114 -157 -188 -30 -102 -10 -185 52 -215
29 -14 42 -14 91 -4 33 7 66 21 79 35 23 23 23 26 21 225 l-3 202 -83 -55z"/>
<path d="M6435 3418 c-66 -38 -104 -175 -105 -375 l0 -83 80 60 c43 33 92 79
109 103 66 97 80 238 27 284 -30 25 -78 30 -111 11z"/>
</g>
</svg>
