<?xml version="1.0" standalone="no"?>
<!DOCTYPE svg PUBLIC "-//W3C//DTD SVG 20010904//EN"
 "http://www.w3.org/TR/2001/REC-SVG-20010904/DTD/svg10.dtd">
<svg version="1.0" xmlns="http://www.w3.org/2000/svg"
 width="920.000000pt" height="658.000000pt" viewBox="0 0 920.000000 658.000000"
 preserveAspectRatio="xMidYMid meet">

<g transform="translate(0.000000,658.000000) scale(0.100000,-0.100000)"
fill="#000000" stroke="none">
<path d="M5561 5762 c-237 -209 -267 -239 -294 -300 -15 -33 -32 -83 -37 -112
-6 -30 -10 -254 -10 -524 0 -434 -2 -474 -19 -511 -15 -33 -89 -108 -206 -207
-5 -4 9 -8 30 -8 36 0 51 10 160 107 175 155 219 202 256 279 l34 69 5 500 5
500 26 55 c26 56 53 87 147 173 28 26 52 50 52 52 0 2 -14 3 -32 3 -25 -1 -51
-18 -117 -76z"/>
<path d="M4786 5750 c-74 -78 -76 -81 -76 -130 0 -61 15 -99 64 -163 l36 -47
0 -158 c0 -101 -4 -162 -11 -169 -8 -8 -33 4 -92 43 -112 76 -152 87 -334 92
-172 4 -233 -7 -316 -60 -69 -44 -132 -119 -146 -172 -26 -103 -5 -154 108
-261 l83 -80 -7 65 c-10 85 -10 251 0 318 12 87 74 137 148 118 25 -6 262
-193 314 -248 l32 -33 -224 -232 c-124 -127 -240 -240 -258 -251 -67 -40 -137
-35 -189 15 l-28 27 0 -116 c0 -103 2 -119 23 -148 12 -19 42 -44 66 -57 44
-23 48 -23 382 -23 204 0 348 4 364 10 15 6 80 62 144 125 88 86 121 125 129
154 15 49 15 293 1 363 -15 71 -69 183 -115 236 l-37 43 17 51 c11 35 16 87
16 169 0 66 4 119 8 119 5 0 21 -18 38 -39 l29 -40 68 67 c44 44 67 74 67 90
0 36 -38 101 -96 167 -58 65 -102 143 -111 200 -3 19 -9 35 -13 35 -4 0 -42
-36 -84 -80z m20 -1105 c87 -102 134 -181 134 -223 0 -13 -13 -37 -29 -53
l-29 -29 -359 0 -358 0 238 241 239 241 40 -38 c22 -22 78 -84 124 -139z"/>
<path d="M3615 4720 c19 -28 39 -68 45 -88 5 -20 10 -140 10 -267 0 -126 5
-257 10 -291 28 -174 108 -312 229 -396 81 -57 92 -58 729 -58 l582 0 0 -388
c0 -335 -2 -395 -17 -437 -16 -50 -56 -96 -163 -188 l-55 -47 40 0 c37 1 51
11 203 148 257 234 252 222 252 616 l0 284 155 147 c204 195 191 187 199 121
20 -154 136 -231 241 -160 71 48 245 218 265 259 110 227 -55 380 -254 238
-28 -20 -80 -61 -115 -92 l-63 -55 -34 37 c-19 20 -36 37 -39 37 -3 0 -5 -33
-5 -73 0 -67 -2 -75 -27 -99 -58 -54 -103 -68 -218 -68 l-105 0 0 98 c0 99 14
172 43 228 9 18 56 68 104 113 l87 81 -37 0 c-34 0 -51 -12 -185 -133 -81 -74
-161 -150 -178 -169 -33 -38 -99 -192 -89 -208 4 -6 -230 -10 -633 -10 -730 0
-700 -3 -776 81 -73 81 -81 118 -77 364 3 219 -7 324 -37 385 -16 33 -21 35
-69 38 l-52 3 34 -51z m2520 -662 c52 -23 88 -143 56 -182 -32 -39 -103 -6
-188 87 -46 50 -50 59 -30 74 37 30 119 41 162 21z"/>
<path d="M3470 3824 c64 -73 64 -75 71 -454 7 -390 12 -422 82 -553 74 -140
212 -259 355 -309 63 -22 81 -23 332 -23 l265 0 69 34 c52 25 93 58 168 133
106 106 152 169 169 231 6 21 11 112 12 201 1 158 1 163 -26 219 -19 38 -52
79 -105 127 l-77 71 -3 -168 -3 -168 74 -70 c58 -55 76 -80 84 -114 25 -96
-41 -199 -141 -221 -35 -8 -155 -11 -386 -8 -379 5 -403 9 -529 81 -87 49
-175 140 -214 221 -47 96 -57 161 -57 396 0 229 -14 333 -48 380 -15 20 -29
26 -72 28 l-53 3 33 -37z"/>
<path d="M5690 3487 l0 -163 66 -64 c82 -81 104 -122 104 -194 0 -107 -71
-233 -212 -378 -96 -98 -186 -162 -278 -197 -63 -25 -73 -25 -367 -29 l-302
-4 77 -66 c42 -37 95 -83 117 -103 104 -95 86 -89 249 -89 193 0 272 16 405
82 185 92 302 235 346 419 10 46 14 139 15 364 1 372 0 373 -123 502 -44 45
-84 83 -88 83 -5 0 -9 -73 -9 -163z"/>
<path d="M3916 3381 c-112 -112 -109 -95 -28 -182 60 -64 91 -107 112 -153
l18 -38 89 88 c50 49 93 100 98 112 16 52 -3 91 -92 183 -47 49 -89 89 -92 89
-4 0 -51 -45 -105 -99z"/>
<path d="M4335 3380 l-99 -100 56 -57 c61 -63 138 -168 138 -190 0 -28 28 -10
112 76 84 85 88 91 88 133 0 30 -7 54 -22 75 -23 30 -159 162 -168 163 -3 0
-50 -45 -105 -100z"/>
<path d="M4243 2254 c-65 -32 -92 -119 -58 -184 9 -17 34 -39 56 -51 54 -27
109 -19 156 25 110 100 -20 276 -154 210z"/>
<path d="M1192 2163 c30 -32 60 -90 78 -148 8 -27 14 -208 20 -570 8 -543 10
-578 49 -627 l19 -23 389 0 c408 0 431 2 488 47 37 29 65 90 65 142 l0 45 -42
-28 c-79 -52 -103 -56 -359 -56 -219 0 -238 1 -258 19 -35 32 -41 81 -41 354
l0 262 173 0 c148 0 183 -3 232 -20 32 -11 60 -18 62 -16 2 2 -19 28 -46 58
-78 85 -144 111 -298 116 l-123 4 0 107 c0 59 -6 131 -14 160 l-14 53 252 -5
c268 -5 305 -11 404 -61 l53 -27 -16 38 c-35 83 -97 140 -191 176 -57 21 -74
22 -484 25 l-425 3 27 -28z"/>
<path d="M6638 2113 c-34 -52 -134 -153 -190 -191 -42 -29 -72 -47 -173 -104
l-50 -28 87 0 87 0 3 -442 3 -443 25 -50 25 -50 160 -3 159 -3 -26 28 c-14 16
-37 48 -50 73 l-23 45 0 420 0 420 76 -2 c43 -1 93 -8 114 -17 20 -9 41 -16
46 -16 5 0 9 36 9 80 l0 80 -125 0 -124 0 -3 122 -3 122 -27 -41z"/>
<path d="M2937 1908 c-82 -17 -162 -80 -202 -159 l-17 -32 -23 57 c-44 109
-90 135 -237 136 l-98 0 34 -45 c20 -25 39 -65 45 -95 7 -32 11 -198 11 -444
0 -312 3 -403 14 -440 26 -85 27 -86 204 -86 l154 0 -31 35 c-68 77 -66 65
-69 446 l-3 346 28 33 c82 98 226 88 281 -20 21 -43 22 -52 22 -367 0 -335 6
-403 41 -448 20 -25 21 -25 176 -25 l155 0 -36 42 c-62 72 -66 102 -66 465 l0
323 36 40 c65 72 164 77 235 13 22 -20 43 -50 49 -71 6 -22 10 -172 10 -358 0
-335 6 -391 46 -435 15 -17 32 -19 172 -19 l154 0 -31 35 c-68 78 -65 62 -71
485 -5 380 -5 386 -29 433 -49 99 -161 157 -305 157 -118 0 -187 -44 -246
-159 -12 -22 -24 -41 -26 -41 -2 0 -10 15 -17 33 -47 112 -226 195 -360 165z"/>
<path d="M8123 1909 c-150 -28 -252 -133 -253 -259 0 -153 73 -247 290 -375
111 -65 150 -113 150 -185 0 -35 -29 -97 -56 -121 -54 -48 -149 -69 -218 -49
-50 14 -110 59 -137 104 l-19 31 0 -96 0 -97 68 -28 c61 -26 78 -28 197 -28
128 -1 132 0 197 32 132 65 200 163 206 297 7 163 -58 254 -279 387 -137 82
-175 124 -164 182 25 135 270 123 356 -18 l19 -31 0 88 0 87 -32 20 c-79 49
-233 77 -325 59z"/>
<path d="M4102 1883 c62 -65 63 -67 68 -543 l5 -435 25 -50 25 -50 159 -3 159
-3 -33 38 c-65 74 -65 67 -70 518 l-5 410 -25 50 c-38 76 -69 89 -215 93
l-120 4 27 -29z"/>
<path d="M4644 1880 c61 -73 60 -65 66 -550 6 -569 -9 -530 212 -530 l150 0
-31 39 c-64 81 -66 88 -69 401 -2 157 -1 304 3 328 20 133 210 198 330 114 25
-18 48 -32 50 -32 3 0 5 39 5 88 0 61 -4 94 -15 108 -36 53 -153 70 -231 35
-46 -21 -92 -75 -121 -141 l-20 -45 -7 45 c-12 68 -44 128 -80 147 -22 13 -64
18 -150 21 l-120 4 28 -32z"/>
<path d="M5665 1900 c-53 -11 -124 -37 -152 -56 -21 -13 -23 -22 -23 -101 l0
-86 40 46 c51 58 111 87 178 87 102 0 162 -47 162 -127 0 -93 -38 -128 -240
-226 -181 -87 -243 -137 -286 -232 -39 -85 -40 -197 -2 -271 48 -92 133 -135
268 -136 95 -1 148 20 199 79 l39 44 12 -38 c7 -21 22 -48 33 -60 19 -22 28
-23 169 -23 l148 0 -40 52 c-23 31 -43 72 -50 101 -6 28 -10 193 -10 393 0
329 -1 346 -21 389 -60 127 -249 200 -424 165z m175 -689 l0 -240 -32 -22
c-46 -33 -132 -38 -185 -11 -58 30 -77 75 -70 167 7 90 33 143 101 207 38 35
160 127 184 137 1 0 2 -107 2 -238z"/>
<path d="M7259 1886 c-81 -33 -122 -61 -172 -115 -173 -193 -199 -556 -55
-771 103 -155 269 -224 484 -199 100 11 142 22 197 52 l37 21 0 88 c0 48 -2
88 -5 88 -2 0 -24 -21 -47 -47 -56 -60 -106 -83 -186 -83 -82 0 -149 28 -192
82 -34 41 -70 123 -70 157 0 30 72 86 167 132 209 99 320 217 330 353 5 56 2
70 -23 117 -16 29 -47 65 -68 81 -95 69 -286 90 -397 44z m211 -83 c40 -36 51
-87 39 -166 -18 -112 -77 -199 -184 -273 -27 -19 -60 -41 -72 -50 l-23 -16 0
108 c0 142 22 282 52 336 47 85 131 112 188 61z"/>
</g>
</svg>
