<?xml version="1.0" standalone="no"?>
<!DOCTYPE svg PUBLIC "-//W3C//DTD SVG 20010904//EN"
 "http://www.w3.org/TR/2001/REC-SVG-20010904/DTD/svg10.dtd">
<svg version="1.0" xmlns="http://www.w3.org/2000/svg"
 width="1920.000000pt" height="1920.000000pt" viewBox="0 0 1920.000000 1920.000000"
 preserveAspectRatio="xMidYMid meet">

<g transform="translate(0.000000,1920.000000) scale(0.100000,-0.100000)"
fill="#000000" stroke="none">
<path d="M7090 15774 c-401 -68 -584 -125 -880 -275 -282 -142 -474 -282 -711
-519 -241 -241 -398 -461 -540 -755 -296 -616 -358 -1275 -184 -1943 153 -585
514 -1126 994 -1492 930 -708 2205 -768 3188 -150 156 98 275 193 507 404 l76
68 105 -100 c593 -566 1302 -832 2110 -791 398 20 739 106 1071 269 495 244
947 674 1234 1173 323 563 419 1287 264 1997 -138 630 -542 1225 -1109 1632
-334 239 -709 392 -1164 475 -128 23 -179 27 -411 31 -250 3 -274 2 -429 -23
-509 -83 -898 -243 -1265 -519 -122 -92 -316 -263 -364 -321 l-30 -38 -35 29
c-18 16 -85 76 -148 133 -398 361 -831 584 -1329 685 -224 45 -339 56 -579 55
-195 -2 -259 -6 -371 -25z m754 -174 c188 -28 426 -84 426 -101 0 -8 -237
-107 -277 -115 -16 -3 -64 4 -108 15 -249 66 -556 65 -837 0 -50 -12 -97 -18
-110 -14 -23 8 -249 105 -257 112 -9 7 10 14 120 43 140 36 311 67 444 79 148
14 437 5 599 -19z m4036 10 c200 -21 515 -91 507 -113 -2 -6 -32 -20 -68 -33
-35 -12 -84 -33 -109 -47 -70 -39 -93 -40 -250 -7 -258 55 -530 51 -774 -11
-44 -11 -91 -18 -105 -14 -38 8 -271 108 -271 116 0 8 209 63 300 79 209 38
563 51 770 30z m-1208 -219 c72 -19 171 -63 213 -96 18 -15 16 -18 -53 -81
-40 -36 -72 -69 -72 -72 0 -9 149 -62 174 -62 10 0 34 14 53 30 106 94 348
154 618 154 172 0 270 -14 419 -61 192 -60 298 -161 483 -461 46 -75 83 -145
83 -158 0 -30 -369 -557 -402 -575 -10 -6 -31 -8 -46 -5 -75 16 -409 56 -428
52 -14 -4 -37 -36 -71 -101 l-50 -95 31 -4 c17 -3 90 -10 161 -16 128 -11 277
-32 345 -50 33 -9 40 -18 103 -145 37 -74 67 -140 67 -146 0 -6 -18 -10 -42
-9 -105 4 -109 3 -165 -55 -52 -54 -53 -54 -85 -41 -18 8 -53 17 -78 21 -47 8
-82 37 -143 117 -19 26 -38 39 -62 44 -25 4 -40 15 -50 35 -20 37 -44 49 -86
43 -98 -16 -139 77 -68 153 13 12 20 25 18 27 -7 7 -286 -16 -300 -25 -17 -10
71 -150 119 -187 50 -39 113 -74 197 -108 39 -15 111 -53 160 -83 50 -30 124
-72 165 -93 130 -66 136 -92 60 -243 -82 -162 -88 -281 -20 -421 24 -50 203
-266 237 -287 13 -8 282 244 308 288 13 21 27 56 30 77 16 94 -93 547 -167
691 -10 21 -17 41 -15 43 3 3 59 -13 126 -36 66 -22 125 -40 131 -40 21 0 7
35 -95 240 -58 117 -105 218 -105 225 0 7 39 64 86 127 48 62 139 183 204 269
75 99 127 159 142 163 33 9 197 -21 308 -56 183 -58 363 -169 439 -271 54 -73
152 -256 190 -356 44 -114 70 -238 81 -386 14 -179 2 -233 -94 -422 -52 -105
-145 -232 -236 -325 -74 -77 -91 -81 -186 -51 -46 14 -55 14 -70 2 -26 -22
-44 -73 -44 -128 0 -55 22 -81 68 -81 32 0 77 -48 92 -96 17 -58 25 -374 11
-464 -34 -220 -65 -282 -223 -446 -181 -186 -348 -294 -573 -370 -83 -27 -118
-34 -183 -34 -169 0 -393 55 -557 137 -116 58 -105 17 -105 408 0 312 2 345
18 363 17 20 381 212 401 212 13 0 9 -10 -53 -145 l-51 -110 -1 -115 c-1 -89
-5 -125 -20 -160 -35 -83 -19 -240 32 -318 l15 -23 31 43 c17 24 56 68 87 99
36 35 79 95 118 165 34 60 79 125 100 145 79 75 142 117 185 124 127 19 186
62 259 186 50 87 128 168 190 199 24 12 59 36 76 53 39 37 69 117 54 144 -7
13 -68 38 -203 81 -280 89 -271 87 -300 71 -14 -8 -128 -103 -253 -212 -153
-133 -230 -195 -235 -187 -4 7 -11 64 -15 126 -4 63 -9 114 -11 114 -3 0 -21
-11 -42 -23 -20 -13 -135 -78 -254 -145 -150 -85 -226 -122 -248 -122 -45 0
-278 117 -418 210 -140 93 -280 209 -384 318 -114 120 -112 114 -98 224 19
149 58 323 106 468 47 142 191 448 229 486 13 13 47 27 81 35 32 7 60 13 62
15 2 1 -9 48 -23 104 -14 57 -22 106 -18 110 17 16 317 50 436 50 l124 0 37
40 c41 45 70 56 108 41 50 -19 123 17 159 78 66 109 128 157 216 167 109 12
113 19 82 118 -11 38 -18 74 -15 82 3 8 26 23 50 34 55 23 70 49 62 105 -9 55
-30 74 -84 73 -52 0 -58 5 -97 84 -36 74 -68 99 -132 105 -74 6 -82 -5 -54
-69 33 -76 35 -91 17 -146 -26 -77 -71 -142 -100 -142 -29 0 -41 14 -51 57 -9
46 -42 67 -142 92 -98 25 -133 43 -133 69 0 26 53 73 144 128 l79 47 -24 18
c-29 23 -140 59 -179 59 -15 0 -57 -9 -94 -20 -62 -20 -68 -20 -114 -5 -40 13
-58 14 -93 5 -64 -16 -150 -50 -181 -72 -47 -33 -89 -33 -157 -3 -50 23 -63
25 -76 15 -17 -14 -245 -306 -245 -314 0 -2 13 -7 29 -11 44 -9 113 -76 138
-131 12 -27 34 -87 48 -134 36 -118 97 -236 153 -301 26 -30 56 -67 66 -83 18
-29 18 -30 0 -43 -29 -21 -63 -27 -89 -15 -13 6 -52 50 -87 98 -35 48 -123
168 -196 268 -148 201 -145 194 -102 293 23 50 23 52 6 78 -22 33 -96 67 -138
63 -27 -3 -36 -11 -60 -59 -35 -69 -68 -88 -203 -122 -102 -26 -318 -99 -367
-123 -26 -14 -28 -13 -71 44 -94 123 -137 191 -137 213 0 46 262 279 477 422
116 78 400 227 432 227 10 0 52 -9 93 -19z m-4109 -7 c67 -17 139 -51 177 -83
l25 -21 -108 -101 c-155 -146 -251 -269 -346 -441 -29 -53 -49 -80 -64 -83
-12 -3 -66 -14 -119 -24 -169 -35 -361 -111 -538 -215 -34 -20 -64 -35 -66
-33 -2 2 -11 32 -20 67 -11 46 -15 94 -12 170 l3 107 49 58 c163 190 492 435
760 567 112 54 154 59 259 32z m1949 7 c55 -9 328 -136 328 -153 0 -15 -105
-68 -157 -79 -46 -11 -60 -9 -116 10 -91 30 -137 26 -193 -18 l-23 -18 61 -69
c34 -38 108 -140 165 -226 57 -87 112 -162 121 -166 9 -5 51 -15 92 -21 113
-20 273 -74 396 -136 99 -50 110 -53 122 -38 16 22 16 68 -1 81 -6 6 -26 14
-42 17 -106 25 -99 70 30 213 l48 53 40 -38 c22 -21 48 -57 58 -79 18 -39 18
-52 7 -193 -7 -83 -16 -151 -20 -151 -5 0 -31 11 -58 25 -27 14 -52 25 -54 25
-12 0 -36 -62 -38 -97 -2 -61 10 -84 81 -154 62 -61 162 -219 178 -279 4 -16
-10 -35 -66 -87 -39 -36 -71 -69 -71 -74 0 -4 21 -10 48 -14 26 -3 61 -8 78
-11 27 -4 35 0 52 28 l21 32 19 -44 c40 -96 82 -316 82 -435 0 -108 -21 -191
-79 -310 -51 -104 -172 -273 -271 -376 -49 -53 -60 -59 -95 -59 -25 0 -155 39
-338 101 -286 98 -299 104 -312 133 -8 17 -25 99 -40 183 -14 84 -32 174 -38
200 l-12 48 -70 14 c-61 12 -75 12 -100 0 -28 -13 -30 -19 -29 -64 1 -28 13
-113 28 -190 15 -77 30 -170 33 -207 l6 -66 -99 -102 c-193 -200 -384 -341
-632 -467 -96 -49 -155 -73 -178 -73 -26 0 -96 35 -283 140 -136 77 -252 140
-257 140 -5 0 -35 -40 -66 -89 l-57 -90 197 -109 c108 -61 224 -123 257 -140
107 -53 100 -23 100 -419 l0 -344 -25 -19 c-14 -10 -75 -39 -137 -64 -262
-107 -527 -143 -678 -92 -99 34 -312 145 -395 207 -153 113 -341 323 -375 419
-51 144 -69 419 -41 608 17 109 32 131 103 150 123 33 242 76 247 89 8 20 -45
193 -59 193 -6 0 -71 -20 -145 -45 -190 -64 -189 -64 -292 43 -135 140 -227
284 -289 452 -22 58 -24 81 -24 220 1 269 71 497 225 735 61 94 88 124 153
172 68 50 76 38 46 -78 l-23 -92 39 -33 c51 -44 78 -51 111 -29 15 9 47 20 72
24 36 5 49 12 61 35 10 18 33 34 61 45 25 10 64 30 85 44 47 32 93 34 128 6
51 -39 137 -262 137 -354 0 -41 22 -25 53 38 23 46 33 57 53 57 31 0 30 5 -7
48 -42 48 -81 135 -87 194 -4 45 -3 48 20 48 44 0 159 -144 198 -248 12 -30
30 -68 42 -85 21 -29 21 -29 41 -9 37 38 26 61 -129 273 -211 286 -192 268
-292 278 -46 5 -88 13 -93 18 -6 6 13 17 52 28 l62 19 39 -23 39 -22 82 47
c45 26 84 49 86 50 1 2 -4 13 -13 26 -29 41 -12 124 36 175 44 47 94 16 84
-52 -8 -50 14 -76 66 -78 30 -2 35 2 58 50 27 55 54 89 84 105 31 16 174 48
190 42 28 -11 29 -44 2 -82 -14 -20 -38 -54 -53 -75 -16 -24 -28 -56 -31 -87
l-5 -50 -50 -15 c-52 -15 -69 -14 -284 21 -24 3 -43 3 -43 -2 0 -5 17 -31 38
-59 20 -27 93 -126 161 -218 69 -93 134 -172 145 -176 11 -5 55 0 101 10 243
55 562 62 815 19 152 -26 241 -34 256 -23 6 4 85 112 175 238 91 127 175 244
188 262 13 17 24 42 24 55 0 17 -186 336 -220 378 -3 3 -12 -5 -21 -17 -18
-22 -81 -58 -88 -50 -3 2 -15 30 -27 62 -27 70 -48 81 -103 55 -47 -22 -130
-40 -188 -40 -61 0 -138 -26 -166 -55 -13 -14 -34 -25 -47 -25 -34 0 -72 -22
-113 -65 -39 -42 -101 -74 -142 -75 -23 0 -29 6 -37 36 -6 23 -6 45 0 61 11
29 12 83 1 99 -4 6 -17 14 -29 18 -12 4 -32 20 -43 36 -25 35 -52 45 -82 29
-13 -7 -59 -18 -103 -24 -44 -7 -129 -31 -190 -54 -123 -46 -185 -60 -185 -42
0 7 44 56 98 110 84 85 110 105 192 145 210 102 466 129 773 80 121 -19 220
-51 292 -95 57 -34 141 -109 168 -148 9 -14 18 -23 20 -20 2 2 28 40 57 83
l53 79 -29 25 c-67 57 -114 103 -114 112 0 14 84 69 132 86 24 9 63 19 88 24
25 4 47 8 50 9 3 0 31 -3 62 -8z m4272 -49 c133 -64 265 -147 406 -253 125
-94 353 -306 374 -348 29 -58 27 -254 -4 -336 l-10 -27 -63 37 c-186 109 -393
189 -567 221 -52 10 -103 25 -114 33 -10 9 -31 41 -46 72 -75 148 -242 358
-378 474 l-71 60 20 21 c32 34 113 74 182 89 97 23 156 13 271 -43z m1076
-987 c152 -252 296 -673 345 -1006 16 -110 21 -319 8 -319 -5 0 -23 23 -42 50
-19 28 -49 61 -67 75 -18 14 -46 53 -63 88 -26 52 -33 81 -41 180 -23 266
-106 501 -259 737 -41 63 -43 67 -37 125 3 33 9 103 12 154 l7 95 43 -48 c24
-26 66 -85 94 -131z m-8501 63 c22 -183 22 -183 -38 -273 -140 -213 -239 -509
-257 -773 -3 -48 -10 -100 -15 -117 -12 -37 -184 -223 -196 -212 -4 5 -8 57
-7 115 2 315 202 936 401 1247 46 72 81 115 93 115 4 0 13 -46 19 -102z m4326
-20 c235 -377 364 -764 405 -1213 12 -132 12 -165 3 -165 -5 0 -24 22 -43 48
-19 26 -60 74 -91 107 -31 33 -61 76 -67 95 -6 19 -18 94 -26 165 -17 141 -49
278 -96 405 -26 71 -30 95 -30 187 0 81 -4 111 -17 134 -22 36 -28 36 -43 -1
-23 -57 -35 -56 -75 7 -33 53 -36 62 -31 113 3 30 8 97 12 148 3 50 10 92 14
92 5 0 43 -55 85 -122z m735 32 c17 -9 365 -472 399 -531 14 -25 12 -32 -66
-190 -139 -280 -210 -497 -258 -784 -13 -82 -31 -155 -38 -162 -10 -10 -187
-83 -201 -83 0 0 -1 138 -1 307 0 209 -4 337 -14 398 -45 301 -124 567 -243
817 -31 65 -48 112 -42 117 31 30 209 85 339 106 103 17 103 17 125 5z m-4430
-104 c0 -46 -4 -56 -24 -69 -42 -28 -70 -29 -156 -4 l-84 25 49 21 c28 12 84
37 125 55 41 18 78 31 83 29 4 -2 7 -28 7 -57z m-884 -1318 c4 -13 31 -74 60
-136 67 -142 161 -286 255 -392 41 -45 79 -91 86 -103 9 -17 9 -52 1 -142 -12
-143 2 -351 32 -495 12 -52 24 -110 27 -129 l6 -34 -69 6 c-92 9 -177 32 -238
65 -50 26 -53 31 -132 187 -145 288 -244 616 -260 860 l-6 90 49 75 c48 73
145 170 170 170 6 0 15 -10 19 -22z m4823 -34 c78 -72 138 -162 146 -219 13
-81 -51 -385 -126 -604 -58 -167 -201 -454 -242 -485 -41 -31 -164 -73 -244
-82 -94 -10 -94 -10 -71 88 44 189 60 437 38 606 -6 48 -6 81 1 100 12 33 48
72 65 72 22 0 74 -50 115 -112 39 -57 78 -84 106 -74 20 8 -15 91 -69 168 -79
111 -78 98 -8 200 62 89 148 247 188 346 11 28 25 52 31 52 5 0 37 -25 70 -56z
m4118 17 c91 -72 163 -190 163 -268 0 -60 -48 -293 -89 -437 -54 -187 -145
-413 -223 -551 -29 -53 -40 -64 -98 -92 -90 -44 -269 -79 -283 -55 -3 4 8 77
24 162 38 207 45 329 29 495 l-13 134 77 81 c116 124 212 277 310 493 19 42
39 77 45 77 5 0 31 -18 58 -39z m-3357 -595 c210 -204 396 -336 654 -462 81
-40 136 -73 143 -87 9 -16 13 -108 13 -348 0 -383 9 -354 -128 -419 -263 -126
-544 -163 -730 -95 -296 107 -512 267 -701 517 -53 70 -53 99 -2 192 96 174
205 464 246 647 11 51 24 84 38 97 12 10 80 36 152 56 71 21 132 40 134 42 14
13 60 -23 181 -140z m-1810 39 c168 -53 310 -101 317 -108 10 -10 23 -80 47
-264 3 -18 1 -33 -4 -33 -23 0 -203 116 -237 153 -44 48 -91 87 -104 87 -5 0
-9 -32 -9 -71 0 -76 -9 -102 -40 -119 -27 -14 -71 9 -107 57 -35 48 -42 53
-74 53 -33 0 -56 -26 -94 -103 -27 -57 -33 -63 -68 -68 -20 -3 -40 -8 -43 -11
-3 -4 -7 -35 -8 -70 -4 -81 -31 -144 -94 -211 -27 -28 -56 -63 -65 -77 -23
-33 -21 -95 3 -149 11 -24 20 -53 20 -65 0 -11 23 -59 50 -106 28 -47 52 -92
55 -100 3 -8 14 -21 26 -28 25 -16 40 -6 71 49 20 37 68 69 102 69 10 0 25 14
34 31 26 48 62 89 78 89 8 0 38 12 66 27 64 34 134 35 194 5 71 -36 73 -45 20
-106 -129 -152 -367 -305 -593 -383 -137 -46 -355 -33 -563 34 -121 40 -262
112 -277 143 -16 32 -18 632 -3 677 9 23 27 37 93 69 295 141 504 286 741 514
79 75 122 110 138 110 13 0 160 -43 328 -95z m-3463 -986 c15 -6 55 -15 88
-20 112 -18 151 -44 317 -212 200 -201 335 -291 576 -387 51 -20 91 -43 103
-59 20 -26 149 -239 149 -247 0 -7 -174 58 -273 102 -342 152 -690 421 -914
709 -105 134 -106 137 -46 114z m4162 -6 c-262 -337 -586 -607 -934 -778 -151
-74 -343 -151 -352 -141 -3 3 13 30 35 60 23 30 54 80 68 111 34 72 66 96 198
155 229 103 368 201 561 396 72 72 141 137 154 144 27 14 235 68 265 69 16 1
17 -1 5 -16z m4121 4 c0 -17 -59 -105 -112 -168 -164 -193 -593 -509 -883
-649 -110 -54 -260 -108 -270 -98 -3 2 26 60 63 128 l68 125 99 40 c283 116
504 274 680 485 73 87 68 85 240 125 124 28 115 27 115 12z m-3866 -107 c96
-115 257 -263 363 -334 55 -36 165 -96 244 -133 79 -36 156 -75 171 -85 24
-17 173 -257 164 -265 -6 -6 -139 45 -258 98 -268 119 -570 333 -795 561 l-72
73 57 77 c31 43 59 77 62 78 4 0 32 -31 64 -70z m-2302 -409 c123 -71 362
-136 562 -155 155 -14 154 -13 104 -119 -42 -86 -123 -188 -170 -209 -70 -33
-278 -53 -553 -53 -255 0 -342 7 -507 41 -59 12 -72 19 -110 60 -24 25 -58 69
-76 97 -31 49 -76 156 -69 163 1 2 61 10 132 19 235 28 368 63 525 138 86 41
116 45 162 18z m4179 -20 c150 -70 283 -107 469 -130 46 -6 103 -11 125 -11
73 0 74 -7 17 -122 -103 -211 -182 -243 -632 -255 -211 -6 -350 3 -545 33
-107 16 -111 18 -149 58 -51 54 -118 159 -141 219 -10 26 -16 49 -14 51 2 2
63 11 134 20 183 23 279 48 445 115 80 33 159 59 176 60 17 1 69 -17 115 -38z"/>
<path d="M10510 15140 c-116 -21 -215 -80 -269 -160 -38 -55 -42 -90 -16 -139
18 -36 27 -37 165 -16 52 8 99 20 105 28 5 7 54 71 108 141 55 70 96 130 93
133 -7 8 -86 22 -116 21 -14 0 -45 -4 -70 -8z"/>
<path d="M12620 13387 c1 -31 122 -602 130 -612 12 -14 452 -165 481 -165 10
0 29 24 48 59 39 74 42 131 7 166 -33 33 -112 71 -196 94 -171 48 -229 105
-270 267 -11 47 -65 113 -123 152 -37 25 -77 46 -77 39z"/>
<path d="M12226 11179 c-41 -32 -34 -56 27 -84 47 -22 107 -33 107 -20 0 14
-43 88 -60 105 -25 25 -41 25 -74 -1z"/>
<path d="M6215 15018 c-28 -15 -55 -50 -55 -70 0 -10 -18 -37 -40 -60 -22 -24
-49 -61 -60 -83 -13 -25 -35 -49 -61 -63 -22 -13 -39 -26 -36 -28 4 -4 159 21
195 32 6 2 12 14 12 27 0 13 11 34 24 46 20 18 23 29 19 61 -4 28 2 53 20 94
26 57 22 67 -18 44z"/>
<path d="M5915 14898 c-19 -18 -37 -45 -41 -60 -6 -26 -5 -27 25 -18 43 12 49
17 71 60 25 48 25 50 0 50 -11 0 -36 -15 -55 -32z"/>
<path d="M8648 14409 c-9 -5 -103 -126 -208 -269 l-190 -260 61 -121 c76 -153
137 -303 179 -441 33 -107 33 -107 77 -128 49 -23 78 -63 87 -122 8 -46 38
-110 66 -138 27 -27 76 -26 90 0 8 16 7 34 -4 74 -9 30 -16 57 -16 60 0 3 15
19 32 35 l32 30 1 110 c0 103 2 111 25 136 14 15 48 38 77 50 28 13 56 31 61
42 26 49 31 295 8 361 -9 24 -13 56 -9 72 7 38 35 39 104 4 83 -42 89 -33 113
163 23 192 28 174 -61 221 -101 51 -212 89 -335 113 -109 21 -164 23 -190 8z"/>
<path d="M7310 13833 c-71 -5 -251 -29 -318 -44 -57 -12 -99 -42 -104 -74 -3
-18 3 -20 57 -23 115 -4 135 -18 135 -91 0 -38 -5 -52 -26 -72 -24 -22 -36
-24 -151 -29 -147 -6 -135 3 -192 -144 -67 -174 -127 -436 -133 -587 l-3 -59
174 -174 175 -175 16 27 c9 15 24 49 34 75 12 31 31 57 54 75 62 46 133 122
130 139 -2 11 -22 20 -62 28 -47 10 -66 19 -91 47 -71 77 -125 297 -125 510 0
78 2 88 21 98 25 14 72 0 106 -32 27 -26 91 -188 123 -313 13 -49 29 -95 37
-101 16 -14 148 5 208 30 42 18 80 49 96 79 15 27 -3 50 -101 121 -101 75
-125 104 -116 141 9 34 61 65 112 65 60 0 169 -58 251 -134 60 -56 78 -81 137
-198 71 -139 147 -255 174 -265 23 -9 47 28 66 104 25 97 55 142 177 265 60
60 109 111 109 114 0 21 -228 504 -246 521 -26 24 -77 36 -244 58 -113 15
-372 24 -480 18z m67 -125 c29 -29 53 -60 53 -68 0 -9 -7 -40 -15 -68 -12 -39
-23 -56 -45 -67 -50 -26 -73 -1 -85 90 -4 27 -13 62 -21 77 -18 36 -18 44 6
68 30 30 50 25 107 -32z"/>
<path d="M5680 13752 c-131 -85 -172 -133 -256 -296 -66 -127 -66 -129 -61
-193 3 -44 15 -84 36 -126 33 -67 119 -178 162 -210 36 -26 99 -36 152 -25 23
5 67 12 98 15 54 5 58 4 97 -31 22 -20 57 -42 78 -50 50 -17 65 -46 57 -113
-3 -29 -3 -53 0 -53 4 0 30 9 59 19 29 11 80 27 113 36 59 16 97 42 117 78 5
10 18 75 29 145 28 182 61 307 136 515 20 54 33 101 29 104 -15 16 -76 6 -99
-15 -30 -29 -42 -28 -124 9 -102 46 -129 70 -143 128 -7 30 -22 59 -41 77 -27
25 -35 28 -121 30 -86 3 -121 6 -188 20 -19 3 -51 -12 -130 -64z"/>
<path d="M8942 12913 c-33 -13 -55 -106 -30 -131 26 -26 108 -4 108 29 0 9 2
24 6 32 6 16 -42 77 -59 76 -7 0 -18 -3 -25 -6z"/>
<path d="M6240 12479 c-69 -22 -130 -46 -136 -54 -11 -15 -34 -231 -34 -322 0
-60 22 -123 117 -334 70 -158 80 -169 152 -169 49 0 135 26 180 55 55 34 94
83 155 197 50 93 106 257 106 310 0 10 -82 94 -182 188 -138 128 -189 170
-208 170 -14 -1 -81 -19 -150 -41z"/>
<path d="M6913 11891 c-60 -44 -85 -110 -67 -178 7 -25 33 -30 63 -13 35 18
67 121 62 198 -1 29 -10 28 -58 -7z"/>
<path d="M10406 11861 c-16 -6 -13 -11 21 -33 30 -20 44 -39 59 -79 18 -49 22
-54 63 -66 25 -7 47 -11 49 -8 2 2 -12 47 -33 100 l-37 95 -51 -1 c-29 0 -60
-4 -71 -8z"/>
<path d="M10530 11588 c0 -7 5 -53 11 -102 8 -66 8 -105 -1 -148 -13 -66 -8
-83 20 -68 41 22 60 73 60 159 0 88 -13 128 -52 155 -27 19 -38 20 -38 4z"/>
<path d="M4052 13380 c-99 -61 -95 -203 8 -257 54 -29 84 -29 140 0 137 70 85
277 -69 277 -28 0 -59 -8 -79 -20z m145 -20 c92 -56 78 -186 -24 -226 -51 -20
-95 -8 -137 35 -75 78 -16 211 94 211 19 0 49 -9 67 -20z"/>
<path d="M4091 13329 c-33 -13 -50 -38 -50 -74 0 -35 23 -70 38 -60 8 4 6 13
-4 28 -20 29 -19 43 5 67 57 57 148 -21 94 -81 -28 -31 -10 -46 19 -17 44 44
33 104 -23 133 -33 17 -45 18 -79 4z"/>
<path d="M4140 12942 c0 -10 7 -28 16 -40 l15 -22 -88 0 c-93 0 -123 -11 -102
-37 8 -9 44 -13 131 -13 99 0 120 3 125 16 4 10 -3 24 -19 37 -14 12 -32 34
-42 50 -19 31 -36 35 -36 9z"/>
<path d="M4134 12710 c-27 -11 -54 -48 -54 -75 0 -11 7 -31 16 -43 14 -21 14
-22 -8 -22 -53 0 -87 52 -53 80 21 18 19 40 -5 40 -33 0 -52 -66 -34 -114 21
-54 174 -66 227 -18 47 42 40 119 -13 147 -32 17 -45 18 -76 5z m74 -52 c30
-30 3 -78 -44 -78 -21 0 -54 28 -54 46 0 36 71 59 98 32z"/>
<path d="M4245 12396 l6 -64 -66 24 c-77 28 -153 32 -162 9 -9 -24 2 -29 85
-36 49 -4 95 -15 125 -30 73 -36 76 -25 41 139 -2 12 -12 22 -20 22 -14 0 -15
-9 -9 -64z"/>
<path d="M4294 12205 c-4 -10 -2 -38 5 -63 6 -25 10 -46 9 -48 -2 -1 -28 4
-58 12 -30 8 -80 13 -110 12 -47 -3 -55 -6 -55 -23 0 -18 7 -20 80 -21 51 0
94 -7 119 -17 46 -20 76 -22 76 -4 0 24 -38 149 -49 160 -7 7 -12 5 -17 -8z"/>
<path d="M4298 11814 c-83 -36 -108 -50 -108 -65 0 -23 27 -25 77 -4 19 8 37
15 40 15 2 0 12 -20 23 -44 10 -24 23 -47 29 -51 21 -12 24 26 6 66 -20 43
-16 54 26 64 24 6 27 2 46 -47 19 -49 53 -79 53 -45 0 28 -57 152 -71 154 -8
1 -62 -18 -121 -43z"/>
<path d="M4412 11575 c-88 -43 -112 -59 -112 -75 0 -13 7 -20 20 -20 24 0 215
94 225 111 4 6 1 17 -7 25 -11 12 -30 6 -126 -41z"/>
<path d="M4475 11440 c-55 -33 -101 -66 -103 -75 -6 -25 24 -28 67 -6 22 12
44 21 49 21 4 0 18 -18 31 -40 22 -39 51 -54 51 -26 0 8 -10 32 -22 52 l-22
37 23 18 c13 11 27 19 32 19 4 0 20 -22 36 -50 17 -30 35 -50 46 -50 9 0 17 4
17 9 0 19 -82 151 -93 150 -7 0 -57 -27 -112 -59z"/>
<path d="M4645 11229 c-151 -37 -155 -38 -155 -60 0 -18 5 -20 42 -17 39 3 44
0 71 -38 l28 -41 -17 -37 c-16 -32 -16 -38 -4 -47 19 -12 46 19 118 135 46 72
52 88 42 105 -13 25 -21 25 -125 0z m73 -36 c-9 -21 -54 -83 -60 -83 -4 0 -16
13 -28 30 l-21 30 23 9 c49 19 92 25 86 14z"/>
<path d="M4825 10976 c-65 -29 -105 -107 -91 -177 26 -134 215 -162 283 -43
42 73 23 154 -48 207 -34 25 -105 31 -144 13z m132 -32 c86 -56 78 -184 -14
-229 -67 -32 -138 -8 -173 59 -30 56 -22 108 26 152 49 47 108 53 161 18z"/>
<path d="M4845 10889 c-66 -53 -70 -58 -63 -65 4 -3 20 2 37 12 43 26 59 9 43
-44 -14 -46 -15 -62 -4 -62 5 0 13 17 18 38 8 31 13 37 33 34 54 -6 68 47 25
97 -14 17 -29 31 -32 31 -4 -1 -29 -19 -57 -41z m77 -6 c34 -30 17 -74 -21
-54 -25 14 -34 40 -20 57 15 18 19 18 41 -3z"/>
<path d="M5002 9538 c-9 -9 -12 -349 -12 -1469 0 -1312 2 -1459 16 -1473 14
-14 68 -16 449 -16 l434 0 16 22 c13 20 15 84 15 523 -1 462 1 501 17 512 13
10 91 13 314 13 225 0 299 3 306 13 6 6 63 147 128 312 64 165 120 306 123
314 4 11 -66 13 -426 10 -383 -4 -433 -2 -447 12 -14 14 -16 53 -16 295 0 253
2 280 17 291 14 10 133 13 540 13 405 0 524 3 531 13 12 13 233 602 233 617 0
16 -2222 14 -2238 -2z"/>
<path d="M7550 9535 c-18 -22 -18 -2918 0 -2940 11 -13 70 -15 441 -15 375 0
429 2 443 16 14 14 16 161 16 1469 0 1308 -2 1455 -16 1469 -14 14 -68 16
-443 16 -366 0 -430 -2 -441 -15z"/>
<path d="M9112 9538 c-17 -17 -17 -2929 0 -2946 9 -9 123 -12 450 -12 l438 0
16 25 c15 23 16 74 13 519 -3 398 -1 498 9 508 10 10 80 13 314 13 l300 0 27
32 c15 18 35 59 45 90 10 32 58 160 107 284 49 124 89 231 89 238 0 11 -83 13
-434 10 -324 -3 -438 -1 -447 8 -8 8 -11 91 -11 294 0 260 2 284 18 296 14 10
126 13 534 13 494 0 518 1 534 19 29 32 236 594 224 609 -15 17 -2208 18
-2226 0z"/>
<path d="M11946 9537 c-17 -6 -30 -24 -45 -60 -11 -29 -180 -500 -375 -1047
-195 -547 -420 -1179 -501 -1403 -80 -225 -145 -418 -143 -430 l3 -22 421 -3
c391 -2 422 -1 436 15 9 10 30 70 48 133 57 204 70 239 90 250 12 6 196 10
508 10 453 0 490 -1 504 -17 9 -10 40 -96 69 -192 29 -95 59 -180 67 -187 11
-12 92 -14 453 -14 280 0 439 4 439 10 0 5 -183 522 -406 1147 -223 626 -457
1284 -521 1463 -63 179 -120 330 -127 337 -13 14 -880 23 -920 10z m448 -794
c58 -192 346 -1187 343 -1189 -2 -3 -567 -6 -689 -4 -11 0 -18 8 -18 18 0 16
44 169 188 662 22 74 65 224 97 333 32 108 61 197 66 197 4 0 10 -8 13 -17z"/>
<path d="M13429 9539 c-86 -13 -156 -66 -196 -146 -68 -141 -6 -317 134 -379
49 -22 166 -23 214 -2 92 40 158 133 166 232 10 119 -47 221 -150 269 -61 30
-105 36 -168 26z m151 -63 c77 -39 130 -128 130 -216 0 -43 -32 -116 -68 -153
-124 -132 -353 -67 -390 110 -41 191 157 347 328 259z"/>
<path d="M13360 9265 c0 -137 1 -145 20 -145 16 0 19 8 22 58 3 56 4 57 35 60
29 3 35 -2 73 -57 32 -47 46 -61 66 -61 25 0 25 0 -17 61 l-41 61 31 32 c48
49 39 104 -20 125 -18 6 -63 11 -100 11 l-69 0 0 -145z m158 100 c20 -7 15
-63 -7 -75 -27 -14 -84 -13 -99 2 -18 18 -15 65 6 77 15 9 63 7 100 -4z"/>
<path d="M2510 5579 c-47 -4 -194 -29 -327 -56 l-243 -47 -29 22 c-41 30 -58
28 -82 -13 -12 -19 -24 -35 -27 -35 -4 0 -70 -13 -147 -29 -190 -39 -248 -45
-328 -31 -58 11 -71 10 -92 -4 -31 -20 -33 -64 -6 -97 18 -22 27 -24 108 -24
60 0 143 11 260 35 132 26 176 31 184 23 9 -9 -11 -75 -85 -280 -54 -147 -106
-276 -115 -286 -22 -22 -191 -63 -317 -77 -50 -5 -98 -12 -107 -16 -38 -14
-26 -67 19 -84 36 -14 106 -12 199 6 44 8 95 17 112 21 49 9 50 -13 5 -124
-86 -209 -169 -508 -158 -567 9 -48 43 -96 67 -96 19 0 20 4 14 48 -4 33 -1
70 10 113 58 223 212 628 252 659 68 54 358 114 358 74 0 -6 -32 -38 -71 -72
-119 -103 -194 -217 -194 -295 0 -101 75 -175 208 -202 181 -38 357 48 435
213 29 60 32 76 31 157 0 67 -6 107 -23 154 -27 77 -21 86 45 76 63 -9 95 -44
124 -135 29 -90 24 -169 -19 -301 -43 -133 -40 -169 16 -169 26 0 35 12 148
210 125 217 220 339 316 405 35 25 41 26 70 15 27 -12 33 -11 51 8 48 48 -9
99 -102 90 -78 -8 -142 -58 -252 -198 -51 -66 -96 -119 -100 -120 -3 0 -14 32
-23 71 -40 178 -90 224 -267 244 -32 3 -62 13 -69 22 -29 34 -53 33 -255 -12
-110 -25 -232 -53 -273 -64 -70 -19 -101 -19 -101 0 0 4 35 106 79 226 43 120
85 242 92 271 7 30 20 57 29 62 8 5 83 20 165 35 83 14 175 33 206 41 90 23
126 19 157 -16 15 -16 33 -30 40 -30 20 0 182 77 204 97 24 21 23 48 -2 73
-22 22 -45 23 -190 9z m-226 -903 c28 -57 34 -183 12 -241 -21 -54 -84 -121
-139 -146 -84 -38 -226 -18 -246 34 -13 33 2 91 33 135 41 58 278 262 301 259
12 -1 28 -18 39 -41z"/>
<path d="M6969 5566 c-25 -6 -65 -24 -90 -38 -67 -39 -250 -201 -384 -339
-323 -333 -502 -629 -522 -859 -7 -84 9 -141 54 -190 71 -80 181 -80 382 1
136 55 287 156 476 321 161 140 153 135 169 118 12 -13 0 -50 -86 -265 -123
-310 -223 -584 -243 -667 -27 -115 -12 -220 33 -226 25 -4 22 -13 57 143 42
185 108 376 217 634 54 129 116 282 135 340 39 113 75 165 130 187 38 16 121
18 158 4 l26 -10 -29 -42 c-109 -159 -159 -350 -114 -438 23 -47 89 -92 137
-93 34 -1 44 5 94 59 67 71 104 141 131 248 11 44 26 83 33 88 6 4 31 8 55 8
l42 0 0 -83 c0 -71 4 -91 28 -138 56 -111 168 -148 249 -83 81 66 115 153 118
302 1 105 -2 101 91 132 106 36 187 38 155 5 -20 -21 -110 -213 -126 -268 -21
-74 -14 -118 26 -151 22 -19 42 -26 71 -26 45 0 60 13 185 155 76 86 85 82 90
-42 5 -114 15 -138 72 -171 38 -22 58 -27 113 -27 58 0 72 4 109 30 43 30 89
87 89 110 0 6 -6 19 -13 29 -16 23 -34 15 -102 -44 -59 -51 -88 -59 -123 -33
-62 45 -74 116 -46 263 21 113 51 192 160 426 87 188 154 362 154 404 0 24
-24 42 -52 38 -15 -2 -33 -22 -57 -63 -43 -76 -149 -304 -201 -432 -21 -54
-44 -99 -49 -101 -6 -2 -29 8 -53 21 -24 14 -58 27 -76 31 -51 9 -160 -10
-343 -59 -167 -45 -167 -45 -224 -30 -73 19 -123 8 -223 -46 -41 -21 -83 -39
-94 -39 -11 0 -50 28 -86 61 -89 82 -186 129 -266 129 -76 0 -256 -31 -443
-76 -147 -35 -217 -40 -293 -19 -18 5 -33 1 -50 -13 -23 -19 -24 -22 -10 -47
29 -54 51 -60 205 -58 l140 2 -55 -50 c-280 -255 -492 -378 -682 -396 -146
-13 -173 44 -121 251 27 108 67 171 280 439 155 196 287 331 453 466 122 100
150 117 174 108 26 -10 19 -39 -29 -123 -60 -104 -58 -144 6 -144 37 0 83 55
130 155 48 103 57 147 35 180 -28 43 -105 61 -177 41z m1731 -891 c9 -11 3
-27 -36 -82 -73 -105 -144 -173 -180 -173 -12 0 8 76 37 137 48 102 141 163
179 118z m-1084 -70 c39 -60 -6 -200 -95 -295 -55 -59 -75 -59 -92 0 -20 66
14 164 93 268 45 58 69 65 94 27z m445 -7 c23 -18 51 -49 61 -69 17 -33 17
-39 3 -79 -18 -50 -57 -105 -86 -120 -31 -17 -57 -3 -81 43 -25 48 -29 143 -9
215 10 37 15 42 41 42 17 0 46 -13 71 -32z"/>
<path d="M14421 5504 c-84 -18 -186 -67 -300 -143 -377 -254 -628 -614 -671
-961 -14 -113 -6 -157 41 -213 56 -68 97 -82 234 -82 106 0 130 3 205 29 134
46 173 67 426 233 28 18 54 33 58 33 20 0 -3 -66 -75 -216 -161 -337 -235
-530 -223 -580 9 -34 59 -59 90 -45 27 12 31 26 38 133 10 134 61 249 334 741
70 126 139 243 154 262 44 53 110 79 196 79 40 -1 78 -6 84 -12 8 -8 -12 -36
-75 -102 -133 -141 -172 -239 -131 -326 22 -45 69 -84 102 -84 33 0 130 60
231 143 68 55 75 59 85 43 65 -109 107 -138 192 -134 53 3 74 11 145 53 45 28
100 67 121 88 22 23 44 37 55 35 19 -4 19 -12 7 -95 -5 -36 -2 -45 20 -67 14
-15 32 -26 41 -26 9 0 90 72 180 159 91 88 174 163 186 166 27 9 40 -10 29
-41 -5 -12 -16 -57 -25 -99 -12 -61 -13 -85 -5 -111 23 -70 118 -82 197 -25
21 15 72 65 112 110 41 45 79 80 84 78 5 -1 19 -36 31 -77 12 -41 29 -87 39
-101 27 -41 88 -68 178 -80 73 -10 89 -16 124 -46 24 -21 66 -42 109 -55 174
-53 521 19 848 175 143 68 186 103 167 138 -13 25 -23 24 -89 -7 -262 -124
-620 -221 -776 -211 -125 7 -139 24 -54 67 131 65 263 191 278 263 18 90 -21
157 -92 157 -148 -1 -329 -128 -410 -288 -20 -39 -45 -76 -55 -82 -28 -15 -77
-12 -112 6 -44 22 -59 67 -59 177 0 84 -2 96 -22 114 -62 55 -87 43 -221 -105
-109 -122 -159 -164 -174 -148 -4 4 6 72 22 153 l30 145 -24 19 c-28 23 -81
25 -120 4 -16 -8 -79 -55 -140 -105 -61 -49 -114 -90 -116 -90 -13 0 -2 41 25
98 37 79 38 109 5 124 -30 14 -39 8 -165 -107 -218 -198 -379 -292 -435 -252
-15 11 -19 26 -18 68 1 46 10 73 67 181 36 70 66 139 66 153 0 23 -4 25 -46
25 -32 0 -56 7 -77 23 -30 21 -42 22 -197 22 -175 -1 -270 -11 -466 -51 -187
-38 -452 -111 -480 -133 -62 -49 -76 -93 -33 -106 20 -7 145 28 278 77 75 27
84 29 99 15 14 -15 11 -20 -34 -62 -198 -186 -405 -317 -609 -386 -55 -19 -91
-24 -165 -24 -170 1 -210 47 -190 220 9 69 19 99 75 210 75 152 164 274 290
401 180 182 440 344 551 344 13 0 30 -10 38 -21 13 -20 13 -25 0 -51 -8 -16
-37 -53 -64 -83 -79 -88 -100 -144 -60 -165 48 -25 169 81 220 193 30 67 50
167 40 207 -12 50 -91 62 -219 34z m859 -783 c0 -5 -18 -35 -39 -68 -50 -74
-148 -169 -232 -223 l-64 -41 -3 35 c-8 91 110 221 256 282 62 25 82 29 82 15z
m2013 -103 c14 -22 -24 -81 -84 -128 -46 -36 -156 -86 -167 -76 -7 8 46 94 85
137 34 37 128 92 147 86 5 -2 14 -10 19 -19z"/>
<path d="M11748 5413 c-9 -10 -46 -83 -82 -163 -37 -80 -74 -152 -82 -160 -11
-11 -47 -16 -142 -20 l-127 -5 -3 -26 c-2 -20 6 -34 34 -58 33 -29 42 -32 93
-31 78 3 81 2 81 -18 0 -10 -14 -58 -31 -108 -55 -160 -99 -349 -105 -454 -6
-90 -5 -100 11 -106 36 -14 48 10 82 167 22 96 52 197 81 269 25 63 53 144 62
179 22 87 43 103 150 109 44 2 80 3 80 1 0 -2 -15 -47 -34 -100 -76 -211 -114
-408 -100 -517 8 -66 30 -92 79 -92 46 0 109 58 212 192 74 99 96 118 131 118
31 0 46 -28 53 -101 9 -105 62 -165 181 -205 38 -12 57 -27 92 -72 54 -71 138
-123 206 -130 42 -4 52 -1 74 21 26 27 33 61 17 86 -8 12 -17 13 -64 2 -66
-16 -101 -4 -130 47 -26 45 -13 71 55 109 111 64 246 240 256 335 7 70 -27
119 -100 142 -33 10 -118 -20 -155 -55 -70 -66 -161 -232 -188 -342 -10 -38
-38 -52 -72 -35 -38 18 -51 49 -58 137 -9 111 -23 158 -57 186 -41 35 -93 33
-144 -3 -52 -38 -146 -141 -192 -210 -28 -43 -44 -58 -65 -60 -69 -8 -50 117
67 433 35 96 49 123 70 133 39 20 211 19 262 0 46 -18 64 -10 64 28 0 53 -107
104 -215 104 -25 0 -45 4 -45 8 0 5 27 53 60 108 67 112 74 140 33 150 -23 6
-32 1 -65 -35 -20 -24 -58 -79 -84 -124 -26 -44 -57 -91 -69 -103 -31 -31 -91
-45 -145 -36 -56 10 -56 13 17 158 58 117 62 147 20 158 -36 10 -53 7 -69 -11z
m1012 -718 c28 -34 -45 -159 -127 -220 -57 -41 -63 -42 -63 -12 0 39 57 144
107 196 53 55 64 59 83 36z"/>
<path d="M4420 5280 c-16 -17 -42 -65 -60 -108 -17 -42 -35 -87 -40 -99 -10
-24 -97 -56 -185 -67 -72 -9 -78 -1 -50 64 52 121 56 193 11 204 -51 13 -66
-8 -126 -161 -17 -46 -41 -90 -53 -98 -14 -10 -46 -15 -97 -15 -85 0 -120 -16
-120 -55 0 -30 28 -49 98 -65 65 -15 86 -34 77 -69 -38 -149 -77 -333 -86
-406 -9 -74 -8 -103 5 -164 18 -85 44 -135 72 -139 36 -5 47 20 35 84 -23 124
-8 277 49 500 36 141 56 183 98 207 36 21 166 35 176 19 3 -6 -12 -66 -34
-134 -59 -183 -73 -252 -74 -363 -2 -165 15 -205 82 -205 47 1 62 14 154 130
78 98 111 131 165 168 52 36 56 32 73 -72 18 -111 67 -168 160 -182 37 -6 57
-19 125 -83 84 -80 126 -101 199 -101 50 0 94 25 102 57 8 31 -19 57 -51 48
-11 -3 -41 -8 -67 -12 -43 -5 -50 -3 -77 25 -47 46 -41 72 25 123 169 130 274
312 230 397 -24 46 -53 62 -114 62 -65 0 -96 -15 -149 -73 -68 -73 -101 -151
-139 -325 -5 -25 -38 -42 -67 -34 -29 8 -46 42 -68 142 -11 51 -29 105 -39
120 -41 58 -127 64 -201 16 -21 -15 -72 -65 -111 -113 -96 -114 -129 -147
-138 -133 -10 17 12 143 59 330 51 202 64 234 105 254 43 20 248 47 299 40 23
-4 64 -17 91 -31 61 -30 87 -27 100 10 13 36 1 56 -50 82 -33 17 -63 20 -201
23 -90 2 -163 7 -163 10 0 4 11 34 25 67 50 122 16 201 -55 125z m704 -626
c17 -44 -34 -139 -102 -191 -57 -43 -66 -42 -57 5 22 117 135 249 159 186z"/>
<path d="M10699 5197 c-75 -69 -193 -135 -394 -217 -188 -78 -258 -115 -402
-212 -117 -80 -165 -128 -202 -207 -22 -48 -26 -69 -26 -152 0 -85 3 -99 25
-132 16 -24 46 -48 80 -65 49 -24 66 -27 150 -26 144 1 214 42 262 154 31 73
40 138 27 195 -10 41 -23 61 -77 113 -97 94 -85 115 123 198 66 26 171 74 233
106 87 45 114 55 118 44 8 -21 -26 -139 -100 -344 -36 -100 -86 -256 -111
-347 -70 -255 -118 -383 -221 -591 -80 -163 -94 -199 -94 -241 0 -53 12 -73
46 -73 30 0 40 15 74 109 16 44 47 116 69 158 21 43 53 121 70 174 47 143 230
448 348 581 26 30 42 56 39 65 -3 8 -6 17 -6 19 0 2 -7 4 -16 4 -21 0 -110
-77 -135 -117 -13 -20 -29 -33 -41 -33 -19 0 -20 4 -14 51 4 28 24 97 45 153
21 55 62 173 90 261 31 95 75 202 107 263 57 109 61 124 42 140 -34 26 -53 21
-109 -31z m-706 -614 c73 -20 137 -75 137 -117 0 -92 -113 -186 -224 -186 -86
0 -144 64 -132 146 5 40 44 131 68 162 14 17 81 15 151 -5z"/>
</g>
</svg>
