<?xml version="1.0" standalone="no"?>
<!DOCTYPE svg PUBLIC "-//W3C//DTD SVG 20010904//EN"
 "http://www.w3.org/TR/2001/REC-SVG-20010904/DTD/svg10.dtd">
<svg version="1.0" xmlns="http://www.w3.org/2000/svg"
 width="1248.000000pt" height="310.000000pt" viewBox="0 0 1248.000000 310.000000"
 preserveAspectRatio="xMidYMid meet">

<g transform="translate(0.000000,310.000000) scale(0.100000,-0.100000)"
fill="#000000" stroke="none">
<path d="M270 2031 l-125 -76 -3 -583 -2 -582 130 0 129 0 3 308 3 309 28 41
c15 23 46 54 69 69 41 28 42 28 242 31 195 3 202 2 246 -21 25 -13 59 -43 75
-66 l30 -43 3 -314 4 -314 124 0 124 0 0 335 c0 318 -1 337 -22 392 -28 75
-107 154 -197 197 l-66 31 -255 0 -255 0 -54 -30 c-30 -16 -63 -43 -75 -58
l-21 -29 -5 239 -5 240 -125 -76z"/>
<path d="M2774 2096 c-49 -22 -74 -61 -74 -118 0 -43 4 -54 34 -84 29 -29 41
-34 81 -34 57 0 100 23 120 66 19 41 19 68 -1 109 -28 60 -101 87 -160 61z"/>
<path d="M3115 2091 c-84 -38 -96 -145 -24 -206 24 -19 42 -25 81 -25 44 0 54
4 84 34 30 30 34 41 34 84 0 58 -25 97 -76 118 -42 18 -51 17 -99 -5z"/>
<path d="M11260 2031 l-125 -76 -3 -583 -2 -582 130 0 129 0 3 308 3 309 28
41 c15 23 46 54 69 69 41 28 42 28 242 31 195 3 202 2 246 -21 25 -13 59 -43
75 -66 l30 -43 3 -314 4 -314 124 0 124 0 0 335 c0 318 -1 337 -22 392 -28 75
-107 154 -197 197 l-66 31 -255 0 -255 0 -54 -30 c-30 -16 -63 -43 -75 -58
l-21 -29 -5 239 -5 240 -125 -76z"/>
<path d="M4680 2048 c-47 -16 -143 -47 -215 -69 -71 -21 -143 -44 -160 -50
-16 -6 -93 -29 -170 -53 l-140 -42 -3 -67 c-3 -78 0 -79 83 -48 27 10 73 26
100 34 94 29 290 90 410 128 207 65 199 64 247 46 24 -8 104 -34 178 -57 258
-79 455 -142 493 -156 65 -25 68 -22 65 53 -3 61 -5 67 -28 74 -14 4 -88 27
-165 52 -141 45 -275 86 -485 151 -64 20 -118 35 -120 35 -3 -1 -43 -15 -90
-31z"/>
<path d="M4615 1740 c-82 -26 -190 -60 -240 -76 -49 -15 -142 -44 -205 -64
-63 -21 -130 -41 -147 -45 -31 -6 -33 -9 -33 -52 0 -50 -1 -49 78 -27 22 6 23
4 20 -27 -3 -30 -7 -35 -50 -48 l-48 -15 0 -51 c0 -132 181 -389 380 -539 63
-47 216 -132 243 -135 4 0 20 -7 36 -15 51 -27 184 -57 299 -69 187 -19 388
14 549 88 l73 34 0 348 0 348 -48 15 c-42 13 -47 18 -50 48 -4 37 -7 36 48 17
23 -8 44 -15 46 -15 2 0 4 20 4 44 0 42 -2 45 -32 51 -18 4 -91 27 -163 50
-71 23 -184 59 -250 80 -160 49 -168 52 -259 80 -43 14 -84 25 -90 24 -6 0
-78 -22 -161 -49z m280 -68 c87 -27 90 -29 93 -60 2 -18 0 -32 -3 -32 -3 0
-46 12 -96 27 -89 27 -89 27 -89 60 0 18 1 33 3 33 1 0 43 -13 92 -28z m-137
-14 c-3 -29 -8 -33 -70 -54 -119 -40 -108 -40 -108 -1 0 35 1 35 78 60 103 33
104 33 100 -5z m362 -56 c81 -27 85 -30 88 -60 4 -39 2 -39 -103 -4 -77 26
-80 28 -82 60 -1 17 2 32 6 32 4 0 45 -13 91 -28z m-582 -14 c-3 -31 -6 -33
-93 -60 -49 -15 -91 -28 -92 -28 -2 0 -3 15 -3 34 0 33 1 33 83 59 108 33 109
33 105 -5z m807 -57 c87 -27 90 -29 93 -59 2 -18 0 -32 -4 -32 -4 0 -47 12
-96 27 -88 26 -88 26 -88 60 0 18 1 33 3 33 1 0 43 -13 92 -29z m-1034 -13
c-6 -28 -13 -34 -73 -54 -118 -40 -108 -40 -108 -1 0 35 1 35 73 57 39 11 77
23 82 25 27 10 32 4 26 -27z"/>
<path d="M2690 1196 l0 -553 -22 -33 c-35 -50 -81 -70 -163 -70 l-71 0 -31
-95 -31 -95 127 0 c203 0 318 43 386 145 65 98 65 99 65 707 l0 548 -130 0
-130 0 0 -554z"/>
<path d="M5872 1413 l3 -338 27 -58 c35 -75 117 -160 187 -194 55 -28 58 -28
256 -28 195 0 201 1 244 25 25 14 63 48 85 77 23 28 44 52 48 52 4 1 8 -33 10
-75 l3 -76 122 94 123 93 0 383 0 382 -124 0 -125 0 -3 -267 -3 -268 -28 -57
c-30 -61 -74 -105 -140 -140 -37 -21 -56 -23 -173 -23 -132 0 -132 0 -175 31
-79 57 -79 57 -79 411 l0 313 -131 0 -130 0 3 -337z"/>
<path d="M7479 1737 c-55 -21 -94 -52 -126 -102 -15 -25 -31 -45 -35 -45 -4 0
-8 34 -10 76 l-3 75 -122 -96 -123 -97 0 -379 0 -379 124 0 125 0 3 278 c3
263 4 279 25 318 34 64 67 97 125 129 47 26 65 30 155 33 112 5 156 -5 204
-45 63 -53 64 -57 67 -400 l3 -313 120 0 119 0 0 308 c0 277 2 311 19 347 21
46 54 79 94 94 16 6 93 11 173 11 124 0 150 -3 183 -20 48 -24 87 -70 101
-118 6 -21 10 -159 10 -329 l0 -293 120 0 120 0 0 333 c0 270 -3 343 -15 385
-22 72 -106 161 -193 204 l-67 33 -230 0 c-264 0 -280 -4 -350 -90 l-38 -45
-49 46 c-85 79 -116 88 -318 91 -128 2 -185 -1 -211 -10z"/>
<path d="M1507 1733 c-6 -11 -47 -161 -47 -173 0 -6 139 -10 388 -10 358 0
390 -1 422 -19 43 -23 69 -57 79 -104 l9 -36 -362 -3 -361 -3 -57 -28 c-79
-39 -153 -122 -174 -194 -40 -139 24 -276 161 -344 49 -23 55 -24 295 -24 175
0 256 4 285 13 64 21 117 45 157 69 21 13 42 23 48 23 5 0 10 -24 10 -55 l0
-55 120 0 120 0 2 323 c1 177 2 341 1 364 -4 116 -75 218 -174 247 -44 13
-122 16 -485 16 -238 0 -435 -3 -437 -7z m851 -569 c3 -60 2 -62 -37 -97 -52
-47 -145 -93 -223 -112 -40 -9 -115 -15 -202 -15 -122 0 -143 2 -176 21 -49
28 -70 66 -70 127 0 55 22 91 74 123 29 18 52 19 331 17 l300 -3 3 -61z"/>
<path d="M3040 1265 l0 -475 125 0 125 0 0 475 0 475 -125 0 -125 0 0 -475z"/>
<path d="M9030 1265 l0 -475 129 0 130 0 3 238 c3 233 3 238 30 294 35 76 104
148 175 183 54 27 68 29 196 33 75 2 137 5 137 6 0 0 16 45 35 99 l35 98 -212
-3 c-248 -4 -260 -7 -347 -105 l-51 -58 0 83 0 82 -130 0 -130 0 0 -475z"/>
<path d="M9947 1733 c-6 -11 -47 -161 -47 -173 0 -6 139 -10 388 -10 358 0
390 -1 422 -19 43 -23 69 -57 79 -104 l9 -36 -362 -3 -361 -3 -57 -28 c-79
-39 -153 -122 -174 -194 -40 -139 24 -276 161 -344 49 -23 55 -24 295 -24 175
0 256 4 285 13 64 21 117 45 157 69 21 13 42 23 48 23 5 0 10 -24 10 -55 l0
-55 120 0 120 0 2 323 c1 177 2 341 1 364 -4 116 -75 218 -174 247 -44 13
-122 16 -485 16 -238 0 -435 -3 -437 -7z m851 -569 c3 -60 2 -62 -37 -97 -52
-47 -145 -93 -223 -112 -40 -9 -115 -15 -202 -15 -122 0 -143 2 -176 21 -49
28 -70 66 -70 127 0 55 22 91 74 123 29 18 52 19 331 17 l300 -3 3 -61z"/>
</g>
</svg>
