<?xml version="1.0" standalone="no"?>
<!DOCTYPE svg PUBLIC "-//W3C//DTD SVG 20010904//EN"
 "http://www.w3.org/TR/2001/REC-SVG-20010904/DTD/svg10.dtd">
<svg version="1.0" xmlns="http://www.w3.org/2000/svg"
 width="4500.000000pt" height="4500.000000pt" viewBox="0 0 4500.000000 4500.000000"
 preserveAspectRatio="xMidYMid meet">

<g transform="translate(0.000000,4500.000000) scale(0.100000,-0.100000)"
fill="#000000" stroke="none">
<path d="M14966 38358 c-26 -41 -113 -253 -150 -366 -60 -185 -89 -357 -115
-667 -8 -97 -10 -104 -60 -189 -288 -488 -404 -930 -388 -1485 4 -133 13 -252
26 -335 110 -686 458 -1370 1071 -2106 201 -241 338 -388 740 -795 218 -220
445 -457 506 -526 431 -495 662 -944 750 -1454 27 -154 24 -447 -5 -585 -26
-123 -50 -180 -126 -296 -272 -418 -796 -618 -1187 -454 -219 91 -392 310
-498 629 -104 309 -90 620 41 957 50 127 85 181 144 218 99 63 210 229 260
391 48 155 55 207 55 391 0 226 -30 374 -75 374 -22 0 -41 -38 -54 -110 -17
-90 -78 -315 -95 -349 -29 -55 -95 -128 -147 -163 -62 -40 -146 -71 -154 -57
-4 5 -3 44 0 87 13 151 -44 337 -98 317 -22 -9 -32 -45 -62 -219 -38 -220 -88
-330 -202 -436 -90 -85 -155 -113 -269 -118 -196 -9 -418 62 -636 204 -70 45
-104 54 -126 32 -18 -18 -17 -558 1 -580 6 -9 47 -30 90 -47 192 -76 304 -196
354 -381 14 -50 18 -103 18 -230 0 -155 -2 -170 -28 -245 -99 -284 -324 -494
-637 -593 -142 -45 -211 -56 -360 -55 -111 1 -152 5 -231 26 -411 108 -579
366 -579 887 1 225 43 458 135 735 80 241 162 430 232 532 186 272 283 605
300 1033 23 600 -176 936 -546 918 -265 -13 -432 -235 -448 -599 -7 -147 6
-235 46 -323 47 -103 110 -140 241 -141 109 0 151 20 314 151 77 63 146 114
152 114 18 0 34 -25 40 -62 7 -40 -49 -221 -107 -347 -53 -115 -138 -239 -204
-300 -31 -28 -90 -67 -132 -88 -71 -35 -84 -38 -162 -38 -69 0 -94 5 -127 22
-69 37 -133 125 -164 228 -6 22 -16 132 -20 243 -5 112 -11 207 -15 210 -13
13 -45 -37 -64 -104 -34 -115 -101 -188 -209 -231 -94 -36 -279 -133 -368
-192 -179 -118 -293 -278 -353 -496 -38 -136 -69 -314 -76 -442 -9 -139 -63
-511 -90 -620 -48 -189 -163 -431 -289 -606 -91 -127 -292 -360 -405 -470 -97
-94 -408 -332 -652 -500 -119 -82 -199 -153 -199 -179 0 -24 261 9 454 58 319
81 712 281 886 453 144 142 290 423 365 704 24 90 94 512 135 817 31 226 67
411 97 492 55 149 180 301 325 396 80 52 180 86 233 80 29 -3 31 -6 46 -79 20
-96 42 -161 73 -213 37 -63 128 -143 203 -179 64 -30 75 -32 178 -32 98 0 117
3 178 28 38 16 70 27 72 25 2 -1 -29 -68 -69 -148 -192 -388 -301 -936 -268
-1353 27 -338 118 -569 297 -753 176 -180 391 -266 670 -267 438 -1 852 240
1093 635 179 293 259 602 283 1087 6 124 13 229 15 232 2 4 23 10 47 14 181
29 378 122 534 254 89 74 113 80 82 20 -130 -256 -197 -647 -169 -999 31 -405
159 -750 349 -939 131 -131 308 -236 468 -278 133 -34 355 -36 478 -4 283 74
509 271 722 629 368 619 455 1489 218 2172 -120 343 -329 685 -652 1065 -148
175 -229 262 -623 665 -185 190 -399 410 -475 490 -690 722 -1054 1317 -1215
1984 -90 368 -102 707 -39 1060 19 107 104 449 115 468 13 20 24 -18 24 -82 0
-117 19 -281 55 -485 56 -319 97 -463 211 -751 270 -684 734 -1379 1453 -2178
121 -134 255 -276 720 -758 269 -280 433 -468 595 -685 266 -356 441 -678 566
-1039 74 -214 106 -364 119 -556 37 -533 -154 -1125 -607 -1871 -35 -59 -62
-111 -58 -114 15 -15 260 250 398 430 275 361 473 775 562 1177 49 221 60 338
60 590 0 208 -3 254 -28 405 -77 474 -225 845 -514 1289 -247 381 -511 690
-1199 1403 -539 560 -761 804 -990 1090 -674 843 -1008 1623 -1074 2512 -14
202 -6 645 15 816 9 66 16 121 16 123 1 11 -23 -3 -34 -20z m-2013 -5440 c55
-64 -15 -253 -117 -313 -70 -41 -118 -30 -135 32 -27 95 58 254 159 297 40 17
68 13 93 -16z"/>
<path d="M12588 34483 c-29 -33 -176 -353 -257 -560 l-21 -53 107 -50 c129
-61 162 -81 372 -233 91 -65 172 -116 180 -115 14 3 254 506 293 615 13 35 12
36 -27 70 -77 67 -192 136 -390 233 -110 54 -209 101 -221 104 -13 4 -26 0
-36 -11z"/>
<path d="M14180 33859 c-96 -40 -161 -189 -162 -374 0 -132 28 -217 129 -390
111 -189 190 -342 222 -432 32 -87 47 -158 34 -166 -4 -3 -30 33 -58 80 -132
226 -341 392 -504 401 -97 6 -135 -13 -166 -80 -45 -97 -27 -217 43 -292 15
-16 54 -41 87 -57 72 -35 131 -37 194 -9 24 11 51 20 61 20 27 0 151 -121 189
-185 19 -31 50 -107 68 -168 19 -62 45 -131 58 -153 19 -32 22 -44 12 -52 -6
-6 -136 -71 -288 -145 -160 -79 -288 -148 -305 -165 -49 -50 -87 -182 -66
-234 6 -15 18 -10 87 34 44 29 343 184 665 346 711 357 865 438 883 466 21 34
59 156 53 172 -3 8 -10 14 -16 14 -6 0 -198 -90 -426 -201 -229 -110 -418
-198 -421 -195 -3 3 0 44 7 93 15 107 8 218 -24 376 -41 199 -91 333 -228 611
-71 142 -128 269 -128 281 0 12 9 34 20 48 64 81 224 43 294 -69 25 -39 30
-44 39 -29 5 10 7 67 5 129 -5 128 -23 181 -82 239 -73 74 -207 115 -276 86z"/>
<path d="M13593 30628 c-178 -184 -342 -597 -318 -800 16 -134 64 -207 166
-253 49 -22 71 -26 105 -21 67 9 140 51 207 120 63 65 167 225 167 257 0 16
-6 15 -57 -8 -216 -95 -400 28 -380 256 9 102 42 194 123 343 41 75 74 141 74
147 0 26 -40 7 -87 -41z"/>
<path d="M11835 30091 c-45 -27 -187 -180 -303 -324 -79 -98 -100 -132 -92
-142 6 -7 103 -77 215 -154 113 -78 205 -148 205 -156 0 -7 -48 -69 -106 -137
-142 -164 -254 -309 -254 -329 0 -9 26 -36 58 -61 108 -85 406 -278 428 -278
7 0 51 46 97 103 47 56 138 153 202 216 95 92 116 117 108 130 -5 9 -93 86
-195 171 -103 85 -189 160 -191 166 -3 6 26 46 64 89 77 88 290 358 307 392
11 20 6 27 -70 86 -128 98 -175 130 -284 190 -110 61 -142 68 -189 38z"/>
<path d="M32500 27944 c-191 -41 -355 -197 -405 -385 -18 -64 -19 -197 -4
-271 37 -180 198 -344 384 -393 67 -17 218 -20 285 -4 121 28 249 121 322 233
57 89 80 171 80 291 0 168 -55 292 -177 403 -132 121 -304 165 -485 126z"/>
<path d="M30605 27449 c-431 -54 -798 -230 -1085 -520 -213 -214 -352 -461
-429 -760 -31 -121 -61 -325 -61 -415 l0 -54 -417 -2 c-398 -3 -418 -4 -421
-22 -6 -28 5 -33 113 -51 361 -61 560 -198 616 -425 20 -79 21 -2683 1 -2870
-43 -409 -136 -628 -322 -759 -39 -27 -100 -60 -136 -73 -63 -22 -88 -48 -67
-69 6 -6 217 -9 539 -7 529 3 529 3 587 26 224 91 360 339 423 772 17 115 19
243 24 1595 l5 1470 135 -3 c244 -4 446 -43 635 -121 111 -45 231 -112 285
-158 45 -39 58 -41 65 -10 3 12 4 173 3 357 l-3 335 -556 3 -556 2 -6 363 c-7
372 -1 521 28 632 30 114 77 190 137 221 l29 15 177 -153 c97 -84 249 -215
337 -291 l160 -139 58 7 c222 25 410 124 498 263 66 104 94 277 66 409 -25
116 -60 178 -151 268 -88 87 -167 133 -271 160 -66 17 -318 19 -440 4z"/>
<path d="M21431 27369 c-660 -58 -1104 -308 -1329 -746 -126 -244 -202 -599
-189 -868 17 -310 124 -546 351 -770 216 -214 355 -293 886 -505 499 -200 977
-401 1056 -445 105 -59 241 -171 306 -253 149 -187 199 -404 148 -650 -37
-182 -105 -315 -227 -442 -186 -195 -443 -300 -776 -317 -431 -21 -856 124
-1131 387 -147 140 -212 255 -275 488 -10 34 -16 42 -35 42 -13 0 -27 -7 -30
-16 -9 -24 -7 -1202 2 -1208 4 -2 428 -5 942 -6 676 -2 956 1 1010 10 276 43
540 153 792 330 128 90 319 281 397 399 112 169 183 345 233 572 30 143 33
516 5 649 -68 314 -206 569 -427 790 -119 119 -225 198 -361 269 -52 27 -440
197 -864 376 -423 180 -799 343 -835 363 -161 88 -286 197 -347 302 -91 155
-82 346 24 553 122 239 323 341 693 354 295 11 542 -38 778 -154 107 -52 321
-192 437 -286 205 -166 389 -406 445 -582 7 -22 17 -46 23 -52 14 -19 51 -16
70 5 15 17 17 73 17 605 0 323 -2 587 -4 587 -3 0 -59 15 -125 34 -259 74
-597 140 -886 172 -167 18 -628 26 -774 13z"/>
<path d="M25875 25924 c-409 -32 -806 -122 -1358 -310 -60 -20 -120 -46 -133
-58 l-25 -21 1 -404 c0 -222 3 -408 6 -412 15 -25 56 6 220 169 98 99 222 213
274 254 333 266 664 408 947 408 83 0 245 -30 327 -60 209 -79 361 -260 419
-500 28 -113 37 -228 37 -462 l0 -227 -52 24 c-80 36 -210 71 -343 91 -151 23
-607 27 -755 6 -723 -102 -1129 -390 -1256 -890 -112 -442 8 -833 344 -1114
192 -161 389 -257 635 -310 148 -31 420 -31 563 0 254 55 491 166 753 353 l94
68 22 -65 c72 -213 271 -338 597 -373 55 -6 306 -11 577 -11 464 0 481 1 491
19 15 29 -9 47 -72 55 -213 27 -353 151 -427 377 -47 142 -51 224 -61 1089
-12 1092 -25 1273 -116 1539 -62 180 -148 318 -279 446 -175 172 -403 272
-695 304 -104 12 -639 23 -735 15z m360 -1919 c187 -42 284 -87 327 -152 17
-26 18 -57 18 -419 l0 -392 -61 -56 c-187 -174 -385 -249 -649 -248 -355 1
-602 142 -689 393 -28 84 -45 222 -38 326 22 329 225 521 607 573 123 17 352
5 485 -25z"/>
<path d="M36815 25924 c-216 -22 -355 -57 -501 -129 -226 -110 -375 -264 -495
-510 l-59 -120 0 368 0 367 -935 0 c-843 0 -936 -2 -942 -16 -10 -26 17 -40
122 -67 283 -72 470 -207 571 -412 84 -171 94 -320 94 -1405 0 -1009 -10
-1181 -76 -1392 -76 -240 -207 -392 -389 -449 -98 -31 -110 -42 -79 -73 14
-14 137 -16 1208 -16 1266 0 1233 -1 1224 46 -2 15 -21 23 -88 40 -247 60
-407 151 -524 297 -96 121 -142 258 -166 502 -17 166 -23 875 -12 1375 9 401
12 453 31 525 48 182 138 303 277 372 71 35 85 38 159 37 66 0 89 -5 131 -27
28 -14 197 -141 374 -282 244 -192 330 -255 351 -255 48 0 189 30 262 57 263
93 396 278 397 548 0 173 -44 280 -170 406 -72 73 -99 93 -180 132 -52 25
-126 52 -165 61 -69 15 -341 28 -420 20z"/>
<path d="M31240 25885 c-19 -23 12 -52 63 -60 71 -12 199 -56 277 -95 231
-116 361 -292 404 -546 28 -167 36 -349 42 -924 7 -633 -7 -1248 -31 -1426
-50 -369 -204 -604 -443 -677 -60 -18 -78 -28 -80 -44 -2 -11 3 -24 10 -30 9
-6 440 -8 1253 -4 l1240 6 0 25 c0 23 -7 26 -105 51 -201 51 -337 125 -453
248 -86 92 -150 219 -177 351 -42 208 -43 262 -47 1728 l-4 1412 -968 0 c-854
0 -970 -2 -981 -15z"/>
<path d="M36585 21108 c-6 -20 -225 -1335 -225 -1352 0 -13 13 -16 74 -16 73
0 75 0 80 28 7 35 226 1339 226 1346 0 4 -34 6 -75 6 -52 0 -77 -4 -80 -12z"/>
<path d="M30690 21090 c-78 -17 -165 -66 -219 -125 -115 -127 -128 -307 -30
-450 l27 -41 -81 -54 c-144 -98 -210 -207 -210 -350 0 -145 68 -250 201 -313
65 -31 72 -32 197 -32 154 0 231 20 346 91 80 50 77 51 136 -27 20 -27 42 -49
48 -49 5 0 34 22 64 49 l55 48 -57 67 -57 67 31 45 c45 66 86 159 109 248 31
121 33 117 -52 114 l-71 -3 -21 -85 c-21 -83 -71 -191 -91 -196 -9 -3 -247
266 -252 284 -1 4 37 30 84 57 112 65 204 154 240 231 23 49 27 73 28 144 0
64 -5 94 -19 120 -32 60 -96 119 -156 141 -63 24 -182 33 -250 19z m156 -135
c155 -46 166 -233 22 -359 -27 -24 -84 -63 -125 -86 l-75 -44 -44 50 c-24 27
-58 77 -75 112 -28 54 -31 69 -26 118 11 104 79 182 185 210 62 17 79 17 138
-1z m-116 -785 c90 -104 166 -192 167 -197 5 -14 -101 -73 -169 -95 -87 -27
-206 -22 -273 13 -138 71 -163 239 -53 364 44 49 122 105 148 104 8 0 89 -85
180 -189z"/>
<path d="M26166 21053 c-2 -10 -8 -42 -11 -70 l-7 -53 176 0 c147 0 176 -2
176 -15 0 -8 -43 -268 -95 -578 -52 -310 -95 -571 -95 -581 0 -15 10 -16 77
-14 l77 3 100 593 100 592 177 0 177 0 6 28 c3 15 8 46 11 70 l7 42 -435 0
c-406 0 -436 -1 -441 -17z"/>
<path d="M31977 21048 c-3 -13 -9 -44 -12 -70 l-7 -48 176 0 c158 0 176 -2
176 -17 0 -9 -43 -270 -95 -579 -52 -309 -95 -569 -95 -578 0 -14 11 -16 77
-14 l78 3 99 593 100 592 177 0 c201 0 180 -10 194 93 l7 47 -435 0 -435 0 -5
-22z"/>
<path d="M20835 20979 c-1177 -66 -2386 -345 -3445 -796 -178 -76 -544 -252
-538 -258 2 -2 89 23 193 56 1866 593 3582 852 4802 724 125 -14 372 -51 379
-58 1 -1 -91 -2 -204 -3 -269 0 -468 -24 -786 -95 -357 -79 -797 -226 -1221
-409 -153 -65 -436 -202 -431 -207 2 -3 17 2 33 10 54 28 379 145 528 191
1192 361 2606 410 4205 145 512 -85 1116 -224 1535 -354 40 -12 -125 70 -295
148 -1182 537 -2384 834 -3670 907 -205 11 -869 11 -1085 -1z"/>
<path d="M27428 20750 c-225 -38 -417 -197 -488 -403 -27 -80 -37 -225 -20
-298 31 -133 132 -255 247 -300 79 -30 234 -38 324 -15 225 57 409 241 455
455 27 127 14 241 -38 344 -83 166 -273 252 -480 217z m183 -156 c64 -20 122
-74 156 -142 25 -52 28 -67 28 -162 0 -93 -3 -112 -27 -163 -60 -127 -144
-205 -268 -247 -95 -32 -206 -25 -281 17 -239 134 -180 545 97 675 102 48 191
54 295 22z"/>
<path d="M29615 20746 c-71 -17 -149 -62 -197 -114 -33 -36 -40 -40 -35 -21 3
13 9 45 12 72 l7 47 -75 0 c-74 0 -76 0 -81 -27 -12 -58 -156 -933 -156 -948
0 -12 14 -15 74 -15 73 0 75 0 80 28 3 15 24 136 46 269 40 235 59 312 95 384
49 97 137 162 236 176 59 9 57 6 74 120 7 49 5 50 -80 29z"/>
<path d="M33283 20745 c-78 -21 -131 -51 -183 -105 l-47 -48 12 69 12 69 -77
0 -77 0 -77 -467 c-43 -258 -80 -481 -83 -496 l-6 -28 79 3 78 3 43 254 c58
352 86 436 176 523 42 41 129 78 181 78 34 0 34 0 45 63 19 109 20 107 -76 82z"/>
<path d="M33785 20751 c-76 -13 -132 -30 -208 -64 -76 -34 -77 -37 -42 -120
l15 -37 51 26 c64 32 188 64 248 64 153 0 223 -82 200 -236 -15 -100 -14 -100
-49 -70 -91 76 -303 76 -453 -1 -191 -96 -257 -344 -131 -491 55 -64 129 -95
239 -100 110 -5 179 12 253 62 l51 34 3 -37 3 -36 66 -3 66 -3 58 348 c63 380
66 443 27 519 -29 56 -95 111 -157 129 -63 19 -174 26 -240 16z m79 -511 c48
-11 83 -36 114 -81 20 -29 23 -44 20 -96 -8 -122 -103 -203 -248 -211 -88 -5
-135 7 -182 46 -76 64 -76 185 0 265 66 70 189 102 296 77z"/>
<path d="M35751 20745 c-35 -8 -91 -27 -125 -43 -275 -130 -411 -502 -281
-769 70 -142 197 -213 384 -213 153 0 293 55 392 156 l54 55 -45 39 -44 38
-46 -40 c-151 -135 -396 -150 -514 -32 -49 50 -69 101 -70 184 l-1 75 395 5
394 5 7 25 c4 14 7 66 8 116 2 160 -48 271 -153 341 -91 62 -235 85 -355 58z
m234 -152 c79 -41 124 -119 125 -215 l0 -58 -316 0 -315 0 6 23 c37 121 128
218 246 261 63 23 200 17 254 -11z"/>
<path d="M28210 20724 c0 -3 -25 -154 -56 -337 -44 -260 -55 -346 -51 -399 15
-182 124 -276 311 -266 100 5 174 36 247 105 35 32 50 42 46 28 -3 -11 -9 -41
-13 -67 l-6 -48 76 0 c70 0 76 2 81 23 3 12 40 235 83 495 l79 472 -79 0 c-43
0 -78 -1 -78 -2 0 -2 -25 -149 -55 -327 -56 -333 -67 -373 -124 -441 -73 -89
-229 -127 -320 -78 -59 32 -91 90 -91 167 0 31 24 197 54 369 l53 312 -78 0
c-44 0 -79 -2 -79 -6z"/>
<path d="M34390 20693 c5 -21 52 -236 105 -478 53 -242 98 -448 101 -457 5
-15 18 -18 88 -18 l82 0 269 488 c147 268 270 490 272 495 2 4 -33 7 -79 7
l-83 0 -214 -402 c-165 -309 -217 -397 -222 -382 -5 10 -43 191 -85 402 l-78
382 -82 0 -82 0 8 -37z"/>
<path d="M12325 17863 c-74 -9 -213 -45 -244 -64 -30 -18 -33 -23 -28 -56 7
-39 45 -86 91 -110 17 -9 57 -16 90 -17 l61 -1 -3 -35 c-2 -19 -15 -66 -29
-105 -14 -38 -38 -114 -54 -167 -16 -53 -49 -148 -73 -210 -24 -62 -63 -176
-86 -253 -23 -77 -87 -273 -140 -435 -121 -362 -155 -493 -147 -567 3 -29 4
-53 3 -53 -2 0 -16 7 -33 15 -24 12 -37 13 -62 4 -40 -14 -51 -35 -51 -99 0
-61 22 -108 84 -177 38 -42 56 -53 108 -68 109 -31 222 -31 403 -1 153 26 166
30 290 91 72 35 164 89 205 119 108 80 250 208 285 255 17 22 38 43 48 47 9 3
17 9 17 14 0 4 27 41 60 82 33 40 60 77 60 82 0 5 7 14 15 20 38 29 152 307
179 436 9 41 25 104 36 140 11 36 20 79 20 97 0 17 5 44 11 60 7 20 7 58 -1
133 -24 229 -78 344 -239 513 -85 89 -171 157 -251 197 -65 33 -225 85 -322
105 -63 14 -225 18 -303 8z m363 -259 c37 -15 107 -47 157 -73 309 -159 423
-511 292 -896 -29 -85 -114 -263 -155 -325 -16 -25 -33 -61 -37 -80 -5 -26
-30 -59 -93 -123 -48 -49 -96 -92 -107 -97 -11 -4 -69 -45 -130 -90 -169 -126
-281 -198 -328 -211 -50 -13 -219 -38 -264 -39 -17 0 -44 5 -58 10 -24 9 -25
11 -11 26 9 8 16 23 16 33 0 9 4 21 9 27 12 12 57 205 76 329 19 120 48 232
75 285 11 21 44 114 74 207 60 188 298 851 347 968 36 87 38 88 137 49z"/>
<path d="M19103 17720 c-32 -14 -47 -29 -59 -57 -10 -21 -43 -93 -76 -160 -32
-68 -58 -130 -58 -138 0 -9 -6 -26 -14 -38 -43 -66 -246 -581 -246 -622 0 -5
-14 -39 -31 -75 -17 -36 -35 -92 -40 -125 -6 -32 -23 -89 -40 -126 -16 -37
-29 -75 -29 -84 0 -9 -14 -48 -31 -88 -36 -85 -89 -252 -89 -285 0 -12 -7 -33
-15 -46 -10 -14 -18 -58 -22 -108 l-6 -84 37 -36 c21 -20 53 -44 73 -53 34
-16 36 -16 55 2 24 25 70 149 148 399 73 239 170 534 175 534 3 0 47 -139 80
-255 24 -82 73 -178 161 -311 117 -178 292 -325 426 -361 108 -28 157 5 166
112 4 53 3 56 -34 90 -20 19 -58 42 -83 52 -25 9 -65 30 -89 46 -57 38 -157
141 -197 202 -43 66 -122 224 -152 305 -22 58 -62 216 -63 247 0 14 125 108
179 134 21 10 53 36 70 58 17 21 48 47 68 56 21 10 56 36 78 58 45 45 125 105
294 222 62 44 140 103 172 131 32 29 88 67 124 84 89 43 135 84 135 121 0 67
-70 169 -116 169 -11 0 -77 -39 -145 -87 -68 -48 -164 -114 -214 -147 -83 -56
-414 -318 -599 -474 -43 -37 -90 -75 -103 -86 l-24 -18 21 53 c35 88 103 241
199 449 50 107 91 202 91 211 0 35 -33 110 -57 129 -32 25 -66 25 -120 0z"/>
<path d="M26928 17691 c-15 -5 -51 -21 -80 -35 -32 -15 -102 -34 -173 -46
-136 -23 -219 -45 -285 -72 -64 -28 -80 -45 -80 -89 0 -30 6 -43 32 -64 21
-18 38 -25 52 -20 42 12 123 23 220 30 l99 8 -7 -50 c-3 -28 -29 -124 -57
-214 -28 -90 -60 -195 -71 -234 -11 -38 -71 -230 -133 -426 -63 -196 -124
-394 -135 -439 -12 -46 -30 -101 -41 -122 l-19 -38 -100 0 c-193 0 -317 -51
-308 -127 2 -22 13 -33 48 -50 38 -20 60 -23 162 -23 114 0 198 -17 198 -41 0
-14 56 -39 87 -39 36 0 47 8 64 45 18 37 40 41 309 53 164 8 203 12 243 30 67
30 77 60 43 130 -14 29 -34 56 -43 59 -9 4 -106 -1 -216 -11 -109 -10 -201
-16 -203 -13 -3 3 22 101 56 219 34 117 84 290 111 383 27 94 53 184 59 200
40 108 190 562 205 620 10 39 27 82 37 97 23 33 73 45 254 58 250 18 270 25
268 99 -2 51 -17 75 -61 97 -33 17 -62 19 -243 19 -113 0 -218 3 -235 7 -16 4
-42 3 -57 -1z"/>
<path d="M16049 17669 c-39 -15 -113 -153 -145 -273 -14 -55 -62 -198 -106
-320 -44 -121 -96 -276 -114 -345 -18 -70 -54 -187 -79 -261 -53 -156 -66
-205 -94 -352 -30 -154 -28 -189 10 -228 64 -64 121 -74 151 -28 20 31 52 144
72 253 10 50 26 119 37 155 11 36 26 97 34 136 7 39 29 105 48 145 19 41 49
126 67 189 31 113 90 276 156 435 18 44 38 103 44 130 6 28 29 83 51 123 22
43 39 87 39 106 0 45 -52 121 -92 135 -36 13 -44 13 -79 0z"/>
<path d="M17040 17644 c-6 -14 -10 -34 -10 -45 0 -19 -135 -382 -242 -649 -83
-208 -273 -767 -313 -918 -17 -67 -12 -94 27 -129 31 -29 90 -53 130 -53 30 0
38 8 93 88 77 112 409 447 478 482 48 25 48 25 63 5 17 -22 16 -75 -6 -265
-22 -189 -5 -272 72 -353 l37 -40 78 5 c71 5 79 8 105 37 37 42 35 61 -12 116
-46 54 -48 67 -24 213 9 53 17 165 17 247 2 139 0 154 -21 198 -25 49 -105
128 -158 154 -74 36 -155 -15 -379 -240 -116 -117 -151 -146 -153 -131 -5 32
81 279 158 456 39 90 89 210 111 268 22 58 53 134 70 170 51 105 79 198 79
260 0 48 -4 60 -27 82 -75 70 -155 90 -173 42z"/>
<path d="M28681 17403 c-39 -19 -105 -116 -194 -284 -31 -58 -64 -112 -73
-120 -10 -8 -51 -15 -110 -17 -103 -5 -111 -10 -139 -75 -15 -37 -15 -38 12
-65 18 -18 48 -32 86 -41 31 -7 57 -14 57 -15 0 -2 -18 -41 -39 -87 -57 -121
-138 -362 -150 -446 -6 -39 -11 -117 -11 -172 0 -88 3 -106 27 -152 32 -65
107 -147 150 -165 49 -21 205 -18 297 6 160 41 307 145 321 227 5 35 3 50 -15
78 -12 19 -28 35 -36 35 -7 0 -35 -13 -61 -29 -115 -71 -196 -101 -285 -108
-109 -7 -154 1 -174 33 -16 23 -15 33 6 147 38 208 92 381 155 498 78 145 74
143 203 150 327 20 342 24 342 85 0 47 -23 99 -52 118 -29 19 -53 20 -190 10
-130 -9 -130 -8 -61 98 77 120 113 189 113 215 0 77 -95 117 -179 76z"/>
<path d="M13859 17375 c-16 -9 -36 -37 -53 -75 -14 -34 -40 -81 -56 -105 -32
-47 -36 -68 -19 -112 39 -103 151 -116 236 -27 80 83 102 165 66 241 -31 65
-123 107 -174 78z"/>
<path d="M15377 17370 c-31 -25 -55 -93 -63 -181 l-7 -67 44 -43 c24 -24 64
-53 88 -64 43 -19 43 -19 80 2 60 35 76 65 75 141 0 53 -7 81 -30 132 -30 63
-32 66 -86 83 -68 21 -70 21 -101 -3z"/>
<path d="M29441 17377 c-15 -7 -36 -38 -58 -86 -18 -41 -45 -90 -58 -107 -30
-39 -31 -63 -6 -113 23 -45 39 -59 80 -71 67 -19 148 31 202 124 56 99 32 197
-61 244 -49 24 -64 26 -99 9z"/>
<path d="M16306 17308 c-64 -100 -61 -140 16 -224 43 -47 105 -83 143 -84 79
0 125 42 125 115 0 43 -12 67 -55 116 -18 20 -45 58 -60 84 -28 47 -56 65
-100 65 -18 0 -34 -16 -69 -72z"/>
<path d="M14280 17013 c-23 -21 -35 -46 -49 -103 -10 -41 -48 -151 -84 -245
-89 -233 -240 -687 -272 -819 -14 -60 -32 -118 -40 -130 -7 -11 -16 -46 -20
-76 -4 -30 -13 -71 -21 -90 -7 -19 -18 -73 -24 -120 -6 -47 -18 -110 -26 -141
-20 -81 -18 -137 9 -184 20 -35 27 -40 63 -43 76 -6 129 65 140 187 4 39 11
71 16 71 5 0 12 10 17 23 17 43 61 273 61 315 0 23 4 42 10 42 14 0 48 71 65
136 8 31 16 59 18 61 2 1 24 -1 50 -6 74 -14 242 24 299 68 13 10 45 24 72 31
66 18 189 100 221 147 14 21 41 57 59 80 42 51 96 188 96 241 0 131 -87 255
-204 292 -63 20 -179 8 -262 -27 l-71 -30 24 47 c15 30 26 71 30 116 7 92 -16
144 -77 168 -55 22 -65 21 -100 -11z m361 -463 c27 -15 49 -63 49 -108 0 -48
-59 -143 -123 -197 -66 -57 -275 -145 -343 -145 -26 0 -27 1 -21 43 15 109
100 244 200 321 118 88 186 113 238 86z"/>
<path d="M27748 16930 c-98 -34 -170 -69 -223 -109 -27 -21 -72 -50 -99 -66
-76 -43 -123 -91 -160 -166 -68 -136 -73 -253 -13 -331 42 -54 154 -131 242
-165 80 -31 95 -40 95 -59 0 -26 -60 -51 -148 -62 -96 -12 -151 -5 -201 24
-32 19 -33 19 -47 0 -22 -31 -18 -107 9 -147 48 -72 116 -99 247 -99 151 0
269 41 344 119 43 44 47 64 29 151 -25 119 -83 186 -218 249 -104 50 -165 93
-165 117 0 22 55 127 85 162 38 45 192 146 245 161 25 7 68 11 95 9 l50 -3 -3
-42 c-5 -57 16 -123 39 -123 10 0 21 -4 24 -10 12 -19 41 -10 72 23 43 45 64
90 70 152 5 45 1 60 -22 104 -35 63 -73 93 -147 115 -73 21 -130 20 -200 -4z"/>
<path d="M21294 16930 c-29 -11 -53 -54 -113 -197 -98 -234 -184 -527 -211
-726 -9 -63 -8 -81 4 -105 22 -42 99 -102 132 -102 40 0 90 59 109 128 60 225
60 225 159 337 73 82 145 136 302 223 135 74 200 102 241 102 65 0 150 79 110
101 -9 6 -24 23 -32 39 -25 48 -57 63 -133 63 -54 -1 -83 -8 -147 -35 -120
-51 -287 -171 -377 -271 -21 -23 -38 -37 -38 -31 0 6 27 67 59 136 87 182 111
260 95 303 -15 37 -106 57 -160 35z"/>
<path d="M22467 16930 c-141 -35 -280 -176 -391 -397 -118 -232 -155 -448
-105 -609 18 -57 31 -79 78 -126 45 -45 68 -59 115 -73 88 -26 187 -17 273 24
68 32 79 38 143 76 81 48 170 148 170 190 0 26 -46 71 -81 80 -19 5 -44 -2
-90 -26 -35 -17 -66 -34 -69 -38 -12 -15 -102 -73 -134 -86 -36 -15 -131 -20
-161 -9 -48 19 -61 160 -24 280 11 38 24 72 28 77 4 4 25 -6 46 -23 51 -40
134 -64 200 -57 122 13 251 121 330 279 42 85 45 95 45 172 0 133 -51 209
-166 250 -55 19 -160 27 -207 16z m149 -225 c51 -77 -42 -249 -154 -286 -47
-15 -77 -5 -102 36 -13 21 -30 35 -42 35 -20 0 -20 0 2 36 39 67 92 123 152
164 73 49 119 53 144 15z"/>
<path d="M31784 16930 c-185 -38 -393 -304 -490 -625 -36 -118 -40 -307 -10
-395 28 -80 113 -163 191 -185 87 -26 187 -17 268 23 36 18 71 32 79 32 8 0
23 9 34 21 10 12 35 29 54 39 40 20 124 106 141 144 6 13 9 36 5 49 -6 27 -61
67 -91 67 -21 0 -108 -48 -190 -105 -74 -52 -112 -65 -184 -65 -87 1 -111 31
-111 143 0 59 32 203 49 220 4 4 25 -6 46 -23 111 -88 266 -74 393 36 57 48
136 162 163 233 42 110 23 247 -42 312 -63 63 -206 100 -305 79z m140 -222
c38 -53 2 -174 -69 -237 -81 -71 -148 -76 -184 -15 -13 21 -28 34 -41 34 l-21
0 22 39 c30 54 109 135 166 171 57 37 105 39 127 8z"/>
<path d="M20330 16916 c-25 -6 -68 -27 -95 -46 -74 -50 -242 -220 -259 -262
-9 -20 -19 -38 -24 -40 -4 -1 -34 -41 -66 -88 -86 -122 -213 -398 -217 -468
-4 -71 94 -191 173 -213 128 -34 316 68 541 295 l93 93 39 -85 c75 -163 176
-242 312 -242 67 0 73 2 97 31 19 22 26 42 26 73 0 52 -17 70 -81 86 -64 16
-104 60 -136 151 -39 109 -37 193 9 332 l36 107 -81 74 c-148 134 -226 195
-264 205 -45 13 -46 13 -103 -3z m108 -242 c12 -8 31 -33 42 -55 24 -45 24
-45 -52 -156 -102 -147 -410 -413 -479 -413 -16 0 -17 3 -3 43 25 74 79 171
167 303 96 144 161 223 220 265 45 33 72 36 105 13z"/>
<path d="M29805 16902 c-87 -31 -187 -92 -217 -133 -17 -22 -18 -31 -9 -66 13
-47 46 -93 67 -93 8 0 49 18 90 40 42 22 87 40 101 40 24 0 25 -2 21 -45 -5
-41 -13 -59 -63 -155 -29 -56 -32 -60 -89 -160 -57 -102 -106 -206 -142 -308
-20 -57 -20 -66 -8 -92 17 -34 88 -100 108 -100 25 0 64 40 157 162 101 134
155 200 267 325 72 81 178 171 188 160 3 -2 -20 -85 -51 -182 -82 -263 -82
-258 -46 -314 36 -55 91 -87 122 -71 10 6 30 33 44 60 37 73 95 152 207 283
99 116 153 165 166 153 3 -4 0 -50 -7 -104 -26 -188 -26 -223 3 -310 31 -91
53 -116 118 -132 38 -10 58 -9 106 3 85 21 219 133 261 218 17 34 27 67 24 79
-6 23 -49 60 -68 60 -7 0 -39 -20 -72 -44 -73 -55 -115 -76 -148 -76 -27 0
-27 0 -22 68 2 37 12 114 21 172 21 127 18 162 -24 236 -26 45 -42 60 -78 76
-101 45 -177 -3 -376 -237 l-26 -30 26 65 c32 81 32 146 0 216 -31 68 -62 88
-120 80 -50 -8 -142 -73 -248 -175 -67 -65 -85 -67 -44 -4 13 21 32 64 41 97
20 68 11 116 -33 180 -61 89 -122 103 -247 58z"/>
<path d="M32377 16884 c-15 -8 -33 -27 -39 -42 -15 -37 -22 -542 -9 -722 12
-175 28 -231 79 -265 20 -14 48 -25 62 -25 73 0 214 119 323 272 l55 77 7 -67
c10 -90 40 -184 71 -221 14 -17 54 -45 89 -62 l64 -31 45 21 c76 37 303 300
361 419 14 29 39 74 55 99 35 56 74 155 95 243 29 127 15 183 -49 196 -47 8
-87 -13 -109 -59 -9 -20 -21 -37 -26 -37 -5 0 -19 -33 -31 -72 -13 -40 -30
-82 -40 -93 -10 -11 -25 -45 -33 -75 -25 -85 -180 -306 -237 -335 -49 -26 -55
-6 -54 189 0 161 2 178 32 287 18 64 32 125 32 136 0 27 -29 63 -78 97 l-40
28 -45 -20 c-60 -26 -73 -50 -88 -157 -13 -98 -15 -102 -183 -375 -81 -131
-111 -169 -123 -157 -4 4 -8 139 -10 300 -2 160 -8 314 -13 341 -8 35 -21 59
-49 87 -42 42 -69 48 -114 23z"/>
<path d="M24694 16832 c-99 -53 -163 -102 -239 -184 -216 -233 -353 -587 -276
-712 27 -44 85 -94 127 -112 71 -30 252 36 354 129 60 55 129 107 141 107 4 0
17 -19 28 -42 30 -63 105 -143 154 -167 29 -14 63 -21 101 -21 91 0 131 17
182 74 55 62 71 92 80 145 6 37 4 41 -19 50 -14 5 -27 15 -29 22 -6 19 -47 4
-113 -40 -79 -52 -110 -56 -145 -19 -32 35 -42 89 -30 161 15 81 45 180 65
211 15 22 15 30 0 93 -9 37 -20 88 -26 112 -5 24 -19 61 -29 81 -19 37 -73 90
-92 90 -5 0 -40 14 -78 30 -38 17 -72 30 -77 30 -4 0 -40 -17 -79 -38z m123
-210 c7 -4 19 -25 28 -46 31 -72 2 -139 -117 -278 -64 -75 -100 -108 -187
-171 -93 -69 -141 -93 -152 -75 -20 30 25 141 112 274 107 163 189 256 253
285 47 21 47 21 63 11z"/>
<path d="M34185 16829 c-182 -94 -330 -257 -441 -484 -61 -127 -94 -236 -94
-315 0 -44 6 -65 28 -101 30 -46 83 -92 126 -109 37 -14 131 5 202 40 34 16
67 30 74 30 6 0 42 28 78 63 70 67 123 107 140 107 6 0 16 -16 22 -36 7 -20
41 -67 77 -105 76 -80 111 -94 215 -87 79 6 127 32 166 90 73 108 80 151 32
186 -16 12 -34 22 -40 22 -17 0 -72 -30 -104 -57 -63 -52 -110 -49 -147 9 -17
28 -20 44 -16 108 5 74 32 175 64 237 16 30 16 37 -10 149 -30 129 -62 196
-105 218 -23 12 -180 76 -185 76 -1 0 -38 -19 -82 -41z m148 -240 c13 -23 17
-49 14 -81 -4 -52 -29 -94 -129 -216 -78 -95 -302 -263 -330 -246 -70 43 241
525 367 569 51 18 56 16 78 -26z"/>
<path d="M23209 16828 c-6 -12 -22 -60 -35 -107 -12 -47 -51 -167 -85 -266
-58 -165 -63 -187 -64 -265 0 -75 4 -92 30 -145 49 -98 71 -91 291 95 213 181
308 255 352 274 23 11 45 17 48 13 3 -3 -11 -77 -32 -164 -29 -123 -38 -179
-38 -254 -1 -89 1 -99 29 -145 40 -65 87 -96 139 -92 29 2 44 10 59 30 19 26
20 32 8 93 -16 80 -11 124 36 309 43 170 51 310 20 361 -10 17 -28 48 -40 70
-15 26 -38 48 -69 65 -44 23 -50 24 -95 12 -63 -17 -200 -102 -403 -250 -16
-12 -16 -8 2 45 34 99 7 262 -52 316 -38 34 -84 37 -101 5z"/>
<path d="M16207 16740 c-14 -11 -28 -35 -32 -56 -9 -52 -125 -341 -206 -518
-38 -82 -69 -153 -69 -157 0 -4 11 -20 24 -36 14 -16 28 -41 31 -55 4 -17 20
-32 47 -44 64 -29 80 -13 165 156 75 151 183 411 203 492 18 71 -1 138 -55
194 -46 49 -70 54 -108 24z"/>
<path d="M15202 16738 c-19 -23 -142 -515 -157 -626 -15 -115 -7 -166 42 -250
40 -69 120 -106 142 -64 13 24 31 160 31 232 0 54 12 110 94 424 30 113 32
165 11 206 -32 62 -135 111 -163 78z"/>
<path d="M13652 16694 c-12 -8 -22 -23 -22 -34 0 -19 -116 -368 -144 -435 -10
-22 -29 -92 -42 -155 -33 -154 -23 -216 46 -274 71 -59 120 -20 168 135 18 57
32 110 32 117 0 16 103 326 135 409 34 83 32 117 -7 168 -60 79 -118 103 -166
69z"/>
<path d="M29245 16701 c-15 -6 -30 -40 -58 -132 -21 -68 -63 -191 -93 -274
-104 -285 -111 -425 -25 -498 68 -57 121 -21 164 110 15 45 32 108 38 140 6
32 26 96 44 143 18 47 36 101 40 120 4 19 22 74 41 122 42 109 43 142 4 196
-51 68 -105 93 -155 73z"/>
<path d="M20255 12022 c-103 -35 -163 -106 -170 -201 -5 -75 13 -119 70 -176
57 -57 104 -76 194 -76 116 -1 203 45 248 131 21 38 24 56 21 117 -3 61 -8 78
-34 115 -62 89 -211 130 -329 90z"/>
<path d="M22294 11885 c-2 -5 -3 -390 -2 -855 l3 -845 220 0 220 0 0 152 0
152 60 61 c33 33 62 60 65 60 3 0 84 -97 178 -215 l172 -215 265 0 c146 0 265
2 265 5 0 3 -124 163 -275 354 -151 192 -275 353 -275 358 0 4 113 125 250
267 138 142 250 261 250 265 0 3 -116 6 -257 6 l-258 1 -211 -208 c-116 -114
-215 -208 -220 -208 -5 0 -9 174 -9 431 0 237 -2 434 -5 438 -8 11 -432 8
-436 -4z"/>
<path d="M17628 11819 c-338 -51 -538 -240 -540 -510 -1 -164 60 -275 197
-364 77 -49 167 -81 368 -130 227 -54 288 -77 323 -118 21 -25 25 -38 21 -70
-11 -84 -81 -113 -267 -111 -156 2 -281 32 -423 103 l-99 49 -27 -62 c-103
-229 -123 -277 -120 -280 47 -39 215 -107 334 -134 137 -32 150 -33 305 -37
282 -8 478 53 616 190 90 89 130 176 138 302 9 135 -32 242 -125 328 -99 91
-186 127 -477 194 -209 48 -277 77 -296 123 -23 54 -6 104 46 136 115 69 357
49 572 -48 38 -17 72 -27 76 -23 6 6 73 164 137 321 12 29 -213 110 -381 137
-91 15 -294 17 -378 4z"/>
<path d="M24870 11815 c-193 -39 -359 -140 -458 -278 l-32 -45 57 -33 c32 -17
109 -61 171 -96 l113 -64 44 49 c78 87 212 126 328 97 136 -35 160 -183 54
-327 -12 -16 -168 -166 -348 -334 -180 -167 -329 -310 -331 -317 -2 -7 -4 -73
-4 -147 l1 -135 624 -3 c381 -1 627 2 631 7 4 8 6 326 1 354 0 4 -138 7 -306
7 l-305 0 194 179 c320 298 386 409 374 639 -5 81 -10 102 -41 165 -65 130
-192 226 -362 273 -80 22 -317 27 -405 9z"/>
<path d="M26445 11824 c-378 -59 -612 -405 -592 -878 11 -276 77 -448 231
-602 65 -66 97 -89 166 -121 110 -53 162 -65 290 -69 395 -12 664 241 726 681
4 28 7 104 6 170 -1 216 -54 403 -152 543 -128 182 -298 271 -530 277 -63 2
-128 1 -145 -1z m203 -393 c101 -52 148 -162 159 -376 6 -135 -8 -269 -38
-354 -77 -221 -328 -230 -409 -15 -30 81 -41 147 -44 270 -6 256 50 426 157
475 54 24 127 24 175 0z"/>
<path d="M27962 11810 c-189 -45 -348 -173 -436 -350 -75 -154 -106 -310 -100
-508 15 -508 318 -827 759 -799 356 23 595 270 654 677 14 92 6 311 -14 404
-65 308 -265 526 -535 581 -94 20 -233 18 -328 -5z m264 -381 c104 -50 156
-194 156 -434 -1 -182 -23 -291 -77 -372 -74 -111 -226 -124 -317 -27 -63 68
-97 205 -98 394 0 243 54 390 163 444 45 22 122 20 173 -5z"/>
<path d="M29410 11810 c-191 -47 -322 -145 -400 -300 -35 -69 -50 -137 -50
-231 0 -247 155 -436 406 -495 51 -12 99 -15 184 -11 124 5 193 23 270 72 23
14 44 24 47 21 11 -10 -38 -145 -69 -192 -18 -27 -52 -63 -76 -81 -116 -88
-330 -98 -490 -23 l-62 29 -82 -164 c-96 -191 -99 -174 37 -224 229 -84 541
-76 748 17 245 112 396 313 450 602 23 121 17 355 -12 470 -67 265 -240 441
-496 506 -103 26 -308 28 -405 4z m285 -321 c118 -32 178 -162 126 -274 -23
-50 -43 -68 -106 -96 -39 -17 -61 -20 -111 -16 -125 10 -195 80 -196 197 -2
144 131 232 287 189z"/>
<path d="M19135 11448 c-345 -47 -583 -316 -574 -651 5 -175 61 -309 179 -428
87 -87 190 -145 325 -180 114 -31 346 -31 458 -1 96 26 197 79 261 135 l48 42
-119 123 -118 123 -49 -35 c-163 -118 -425 -88 -511 58 -14 23 -25 47 -25 52
0 5 179 9 441 9 242 0 446 3 452 7 19 12 14 211 -7 287 -46 168 -160 312 -305
385 -133 67 -303 95 -456 74z m202 -323 c30 -9 65 -29 88 -52 35 -34 74 -102
75 -130 0 -10 -57 -13 -250 -13 -137 0 -250 2 -250 5 0 21 39 96 64 123 70 75
166 99 273 67z"/>
<path d="M21290 11453 c-115 -15 -187 -29 -255 -50 -83 -26 -189 -75 -200 -92
-4 -8 124 -281 140 -299 1 -2 31 13 66 32 164 89 401 93 482 8 26 -27 57 -89
57 -114 0 -10 -44 -13 -194 -14 -280 -2 -418 -38 -514 -134 -69 -70 -87 -118
-87 -240 0 -94 3 -111 28 -161 52 -106 161 -184 299 -214 78 -17 234 -12 303
9 61 19 136 70 170 116 l25 34 0 -77 0 -77 205 0 205 0 0 403 c0 370 -2 410
-20 481 -11 43 -32 101 -47 129 -62 116 -193 206 -351 241 -67 15 -254 27
-312 19z m288 -827 c-5 -77 -35 -123 -100 -155 -91 -43 -212 -28 -248 32 -28
46 -26 99 6 136 35 42 67 49 218 50 l128 1 -4 -64z"/>
<path d="M20134 11431 c-2 -2 -4 -287 -4 -633 0 -669 0 -669 -48 -712 -30 -26
-98 -31 -152 -12 -25 9 -49 18 -53 19 -8 2 -117 -283 -117 -305 0 -14 83 -46
152 -58 88 -16 242 -14 312 5 176 47 293 167 337 345 10 43 13 197 14 698 0
354 -2 647 -5 651 -5 7 -428 9 -436 2z"/>
</g>
</svg>
